<?xml version="1.0" encoding="UTF-8"?>
<svg version="1.2" baseProfile="tiny-ps" xmlns="http://www.w3.org/2000/svg" viewBox="0 0 100 100" width="96" height="96">
  <title>Hellenic Complex Systems Laboratory</title>
  <desc>BIMI brand mark (vector).</desc>
  <rect x="0" y="0" width="100" height="100" fill="#ffffff"/>
  <g fill="none" stroke="#0052cc" stroke-width="2.84" stroke-linecap="round" stroke-miterlimit="4">
    <path d="M30.49,75.46 30.85,75.2 31.09,74.81 31.09,73.88 30.59,73.04 29.57,72.41 28.57,72.24 27.5,72.39 26.46,72.87 25.47,73.73 24.9,74.55 24.53,75.37 24.28,76.33 24.21,77.34 24.32,78.37 24.57,79.33 25,80.29 25.59,81.21 26.47,82.17 27.66,83.05 29.04,83.71 30.5,84.1 32.02,84.21 33.47,84.08 34.78,83.74 36.34,83.06 37.86,82.01 39.24,80.62 40.25,79.14 41.06,77.3 41.5,75.49 41.63,73.48 41.41,71.47 40.84,69.5 39.93,67.63 38.64,65.84 36.93,64.19 34.62,62.7 32.38,61.81 30.06,61.33 27.61,61.25 25.1,61.6 22.34,62.53 19.8,63.99 17.63,65.84 15.74,68.19 14.38,70.72 13.46,73.54 13.06,76.58 13.18,79.53 13.9,82.7 15.12,85.57 16.13,87.24 17.4,88.89 19.9,91.3 22.7,93.14 25.78,94.47 27.73,95 29.44,95.3 31.21,95.44 32.99,95.43 35.06,95.21 36.81,94.86 38.53,94.35 40.54,93.53 42.3,92.61 43.97,91.52 45.84,89.99 46.97,88.87 48.99,86.37 50.24,84.34 51.26,82.18 51.88,80.46 52.42,78.41 52.75,76.43 52.9,74.3 52.86,72.17 52.61,70.06 52.12,67.77 51.51,65.82 50.73,63.95 49.58,61.79 48.43,60.04 47.03,58.29 45.79,56.98 43.73,55.18 41.99,53.94 40.13,52.85 37.78,51.75 35.71,51.03 33.57,50.48 31.01,50.08"/>
    <path d="M29.81,35.89 29.45,36.14 29.23,36.49 29.14,36.97 29.21,37.46 29.79,38.38 30.71,38.93 31.8,39.11 32.96,38.9 33.84,38.47 34.83,37.62 35.4,36.8 35.77,35.97 36.01,35.06 36.09,34.01 35.98,32.97 35.73,32.02 35.27,31 34.71,30.13 33.83,29.18 32.6,28.27 31.25,27.63 29.8,27.25 28.37,27.13 26.87,27.26 25.52,27.6 23.96,28.29 22.44,29.33 21,30.8 19.96,32.39 19.18,34.23 18.76,36.15 18.67,38.03 18.94,40.09 19.5,41.95 20.37,43.72 21.66,45.51 23.37,47.15 25.68,48.64 27.92,49.53 30.3,50.02 32.68,50.09 35.2,49.74 37.96,48.81 40.5,47.36 42.67,45.5 44.56,43.15 45.91,40.63 46.83,37.8 47.24,34.83 47.12,31.81 46.4,28.65 45.18,25.77 44.17,24.1 42.9,22.45 40.39,20.04 37.53,18.16 34.52,16.88 32.56,16.34 30.86,16.05 29.09,15.9 27.31,15.92 25.24,16.13 23.49,16.49 21.77,17 19.58,17.89 18,18.73 16.33,19.83 14.46,21.35 13.26,22.54 11.78,24.32 10.43,26.34 9,29.25 8.31,31.26 7.86,33.03 7.53,35.13 7.4,37.05 7.45,39.27 7.69,41.28 8.18,43.57 8.79,45.52 9.57,47.39 10.72,49.56 11.87,51.3 13.27,53.05 15.17,54.99 16.57,56.16 18.31,57.4 20.16,58.49 22.52,59.59 24.59,60.32 26.73,60.86 29.29,61.27"/>
    <path d="M30.45,35.77 30.84,35.51 31.1,35.07 31.16,34.54 31.01,33.95 30.66,33.42 30.16,32.99 29,32.57 27.83,32.61 26.63,33.06 25.6,33.88 24.85,34.94 24.45,35.9 24.25,36.88 24.22,37.9 24.38,38.99 24.76,40.09 25.34,41.16 26.8,42.75 27.93,43.5 29.38,44.13 30.92,44.46 32.46,44.5 34.01,44.26 35.51,43.76 37.15,42.85 38.23,41.99 39.64,40.39 40.54,38.88 41.22,37.06 41.59,35.05 41.59,33.07 41.24,31.03 40.58,29.17 39.55,27.32 37.98,25.42 36.06,23.85 33.99,22.71 31.44,21.87 28.84,21.54 26.33,21.67 23.75,22.28 21.5,23.24 18.93,24.95 16.73,27.14 15.08,29.59 13.84,32.49 13.16,35.58 13.07,38.67 13.53,41.7 14.55,44.7 15.9,47.2 17.63,49.45 19.94,51.62 22.18,53.15 24.58,54.33 26.7,55.05 28.66,55.48 32.37,56 35.29,56.85 36.73,57.47 38.56,58.46 41.15,60.38 42.67,61.89 43.91,63.43 44.97,65.1 45.65,66.42 46.38,68.27 46.91,70.28 47.18,72.03 47.26,73.9 46.95,76.97 46.14,79.77 44.86,82.38 43,84.86 41.01,86.68 38.43,88.29 35.96,89.25 33.37,89.74 30.93,89.78 28.58,89.41 26.31,88.63 24.4,87.6 22.57,86.16 21.16,84.59 19.86,82.47 19.04,80.23 18.7,78.24 18.71,76.29 19.06,74.33 19.76,72.46 20.66,70.95 21.85,69.56 23.12,68.51 24.79,67.58 26.29,67.08 27.6,66.86 29.08,66.86 30.54,67.11 31.94,67.62 33.13,68.31 34.13,69.17 35.08,70.37 35.87,72.18 36.08,74.12 35.94,75.11 35.62,76.06 35.08,77 34.58,77.58 33.67,78.28 32.56,78.72 31.49,78.8 30.53,78.56 29.64,77.93 29.18,77.07 29.24,76.17 29.48,75.81 29.81,75.59"/>
    <path d="M70.19,64.11 70.55,63.86 70.79,63.46 70.79,62.54 70.29,61.7 69.27,61.06 68.27,60.89 67.2,61.05 66.16,61.53 65.17,62.38 64.6,63.2 64.23,64.03 63.99,64.99 63.91,65.99 64.02,67.03 64.27,67.98 64.7,68.94 65.29,69.87 66.17,70.82 67.36,71.71 68.75,72.37 70.2,72.75 71.72,72.87 73.17,72.73 74.48,72.4 76.04,71.71 77.56,70.67 78.94,69.27 79.95,67.79 80.76,65.96 81.2,64.15 81.33,62.13 81.11,60.13 80.54,58.16 79.63,56.28 78.34,54.49 76.63,52.85 74.32,51.36 72.08,50.47 69.77,49.99 67.32,49.91 64.8,50.26 62.04,51.19 59.5,52.64 57.33,54.5 55.44,56.85 54.09,59.37 53.17,62.2 52.76,65.24 52.88,68.19 53.6,71.35 54.82,74.23 55.83,75.9 57.1,77.55 59.61,79.96 62.4,81.8 65.48,83.12 67.44,83.66 69.14,83.95 70.91,84.1 72.69,84.08 74.76,83.87 76.51,83.51 78.23,83 80.25,82.19 82,81.27 83.67,80.18 85.54,78.65 86.67,77.53 88.69,75.03 89.94,73 90.96,70.83 91.58,69.11 92.12,67.07 92.45,65.08 92.6,62.95 92.56,60.83 92.31,58.72 91.82,56.43 91.21,54.48 90.43,52.61 89.28,50.44 88.13,48.7 86.73,46.95 85.49,45.63 83.43,43.84 81.69,42.6 79.84,41.51 77.48,40.41 75.41,39.68 73.27,39.14 70.72,38.73"/>
    <path d="M69.51,24.54 69.15,24.8 68.93,25.15 68.84,25.63 68.91,26.12 69.5,27.04 70.41,27.59 71.51,27.76 72.66,27.56 73.54,27.13 74.53,26.27 75.1,25.45 75.47,24.63 75.71,23.72 75.79,22.66 75.68,21.63 75.43,20.67 74.97,19.66 74.41,18.79 73.53,17.83 72.3,16.93 70.95,16.29 69.5,15.9 68.07,15.79 66.57,15.92 65.22,16.26 63.66,16.94 62.14,17.98 60.7,19.46 59.66,21.04 58.88,22.88 58.46,24.81 58.37,26.69 58.64,28.75 59.2,30.6 60.07,32.37 61.36,34.16 63.07,35.81 65.39,37.3 67.62,38.19 70,38.67 72.39,38.75 74.9,38.4 77.66,37.47 80.2,36.01 82.37,34.16 84.26,31.81 85.62,29.28 86.54,26.46 86.94,23.49 86.82,20.47 86.1,17.3 84.88,14.43 83.87,12.76 82.6,11.11 80.1,8.7 77.23,6.82 74.22,5.53 72.26,5 70.56,4.7 68.79,4.56 67.01,4.57 64.94,4.79 63.19,5.14 61.47,5.65 59.28,6.55 57.7,7.39 56.03,8.48 54.16,10.01 52.96,11.2 51.48,12.97 50.13,15 48.7,17.91 48.01,19.91 47.56,21.69 47.23,23.79 47.1,25.7 47.15,27.93 47.39,29.94 47.88,32.23 48.49,34.18 49.27,36.05 50.42,38.21 51.57,39.96 52.97,41.71 54.87,43.65 56.27,44.82 58.01,46.06 59.87,47.15 62.22,48.25 64.29,48.97 66.43,49.52 68.99,49.92"/>
    <path d="M70.15,24.43 70.54,24.17 70.8,23.73 70.86,23.19 70.71,22.6 70.36,22.07 69.86,21.65 68.7,21.22 67.53,21.26 66.33,21.72 65.3,22.54 64.55,23.59 64.16,24.55 63.95,25.54 63.92,26.55 64.08,27.64 64.46,28.75 65.04,29.81 66.5,31.4 67.63,32.16 69.08,32.78 70.62,33.11 72.16,33.15 73.71,32.92 75.21,32.42 76.85,31.51 77.93,30.65 79.34,29.05 80.24,27.54 80.92,25.71 81.29,23.71 81.29,21.72 80.94,19.69 80.28,17.82 79.25,15.98 77.68,14.08 75.76,12.51 73.69,11.37 71.14,10.52 68.55,10.19 66.03,10.33 63.45,10.94 61.2,11.9 58.63,13.6 56.43,15.8 54.78,18.25 53.54,21.14 52.86,24.24 52.77,27.33 53.23,30.35 54.25,33.36 55.61,35.86 57.33,38.11 59.64,40.28 61.88,41.81 64.28,42.98 66.4,43.7 68.36,44.14 72.07,44.66 74.99,45.51 76.43,46.12 78.26,47.11 80.85,49.04 82.37,50.55 83.61,52.09 84.67,53.76 85.35,55.08 86.08,56.93 86.61,58.93 86.88,60.69 86.96,62.55 86.65,65.63 85.84,68.43 84.56,71.03 82.7,73.51 80.71,75.34 78.13,76.95 75.66,77.9 73.07,78.4 70.63,78.44 68.28,78.07 66.01,77.29 64.1,76.26 62.27,74.82 60.86,73.25 59.56,71.12 58.74,68.89 58.4,66.9 58.41,64.95 58.77,62.98 59.47,61.12 60.36,59.61 61.55,58.22 62.82,57.16 64.49,56.24 65.99,55.74 67.3,55.52 68.78,55.51 70.24,55.76 71.64,56.27 72.83,56.97 73.83,57.83 74.78,59.02 75.57,60.84 75.78,62.78 75.64,63.76 75.32,64.71 74.78,65.65 74.28,66.24 73.37,66.94 72.26,67.37 71.19,67.45 70.23,67.22 69.34,66.58 68.88,65.73 68.94,64.83 69.18,64.47 69.51,64.24"/>
  </g>
</svg>