<?xml version="1.0" encoding="utf-8"?>
<svg viewBox="0 0 300 300" version="1.2" baseProfile="tiny-ps" stroke-miterlimit="3.25" stroke-linecap="square" fill-rule="evenodd" xmlns="http://www.w3.org/2000/svg">
  <title>Hellenic Complex Systems Laboratory</title>
  <path d="M93.396 222.776h.087l.024-.003h.044l.023-.002h.021l.047-.006h.02l.024-.003.02-.003.044-.006.047-.006.044-.009.02-.003.024-.006.044-.008.02-.003.024-.006.044-.012.085-.02.023-.009.021-.006.043-.012.085-.029.021-.009.023-.009.041-.014.085-.035.021-.009.02-.012.041-.017.082-.041.162-.091.02-.015.021-.012.126-.085.02-.014.021-.018.041-.029.079-.065.02-.014.021-.018.114-.105.146-.15.018-.017.053-.062.067-.082.015-.02.017-.021.033-.044.061-.088.018-.023.014-.021.03-.046.055-.094.109-.194.023-.046.021-.047.044-.097.011-.026.009-.024.021-.05.038-.099.008-.027.009-.023.018-.053.032-.105.009-.027.006-.026.014-.053.027-.105.009-.029.005-.027.012-.056.003-.026.006-.026.012-.056.003-.029.005-.03.009-.055.003-.027.003-.029.009-.058.003-.027.009-.088v-.029l.005-.059v-.029l.003-.029v-.029l.003-.03v-.058l.003-.03v-.146l-.003-.029v-.059l-.003-.029v-.033l-.003-.029v-.029l-.008-.088-.003-.032-.009-.088-.003-.032-.009-.059-.003-.032-.003-.03-.011-.061-.003-.029-.006-.03-.035-.184-.006-.029-.009-.033-.044-.184-.009-.03-.009-.032-.017-.061-.038-.123-.012-.03-.009-.032-.02-.061-.047-.123-.1-.247-.029-.064-.029-.067-.065-.132-.017-.035-.053-.097-.073-.132-.018-.035-.02-.032-.038-.065-.08-.129-.175-.257-.024-.033-.023-.029-.047-.064-.097-.126-.208-.247-.053-.058-.055-.062-.114-.117-.238-.234-.117-.106-.12-.102-.249-.202-.032-.024-.033-.026-.067-.047-.132-.097-.278-.181-.035-.024-.035-.02-.071-.044-.146-.088-.302-.161-.076-.041-.079-.038-.155-.074-.326-.14-.044-.018-.046-.02-.088-.033-.185-.067-.047-.018-.047-.014-.093-.032-.235-.074-.05-.014-.29-.079-.199-.047-.199-.044-.05-.009-.05-.012-.102-.017-.053-.009-.05-.009-.102-.017-.053-.006-.05-.009-.105-.015-.369-.041-.053-.003-.053-.006-.053-.002-.055-.006-.106-.006-.055-.003-.053-.003-.056-.003h-.053l-.055-.003h-.053l-.056-.003h-.378l-.052.003h-.056l-.056.003-.052.003-.112.006-.052.003-.112.006-.055.005-.056.003-.111.012-.053.003-.167.018-.056.008-.056.006-.114.015-.222.032-.056.012-.056.009-.114.02-.226.044-.111.024-.114.023-.226.056-.058.014-.056.015-.114.029-.226.065-.457.146-.053.018-.052.02-.106.038-.211.079-.422.173-.105.047-.106.05-.211.097-.416.214-.052.029-.05.026-.106.059-.205.117-.41.252-.8.557-.211.164-.21.17-.414.357-.052.047-.05.047-.103.093-.199.191-.39.398-.049.053-.047.053-.097.102-.187.214-.364.443-.685.94-.076.117-.077.114-.146.238-.284.483-.032.062-.036.061-.067.123-.132.252-.249.513-.029.067-.029.065-.059.132-.114.266-.03.068-.079.202-.105.272-.027.07-.023.068-.05.14-.096.279-.176.571-.018.07-.02.071-.038.14-.074.287-.017.074-.018.07-.035.147-.064.29-.015.073-.015.076-.026.146-.056.296-.011.077-.012.073-.024.149-.041.302-.011.076-.035.305-.006.076-.018.152-.012.153-.005.079-.012.152-.006.079-.009.155-.006.077-.003.079-.003.076-.005.158-.003.076-.003.079v.079l-.003.077v.474l.003.079v.085l.003.088.005.17.003.088.003.085.006.088.003.085.012.176.006.085.009.087.005.088.009.085.015.176.009.088.008.085.021.176.012.088.008.088.024.175.014.085.012.088.027.176.061.352.015.087.052.264.074.355.082.351.088.352.047.175.049.176.106.352.228.703.059.164.061.161.123.325.27.651.035.079.035.082.074.161.152.319.319.639.044.079.041.079.085.155.179.317.372.621.826 1.216.059.082.061.079.12.161.249.319.519.624.067.08.068.076.413.457.58.592.146.146.153.144.304.284.633.556 1.348 1.043.088.062.085.061.173.121.354.237.721.454.093.056.091.055.188.109.375.211.767.404.1.05.097.047.196.096.398.185.809.348.205.082.208.082.416.156.847.29.099.032.103.032.199.062.404.117.103.029.103.027.205.055.41.103.102.026.106.024.208.047.416.09.422.082.424.077.211.035.214.032.109.015.105.014.217.03.105.014.109.015.65.07.109.009.111.009.108.011.109.009.108.006.111.009.22.015.109.005.111.006.108.006.112.003.111.006.108.003.223.006.12.003h.12l.12.003h.484l.12-.003.123-.003.24-.006.123-.003.12-.006.123-.006.12-.006.124-.006.12-.005.246-.018.12-.009.246-.017.243-.024.123-.012.12-.011.246-.027.49-.061.123-.015.123-.017.246-.038.489-.08.123-.02.369-.07.492-.1.121-.026.123-.027.246-.055.489-.12.978-.27.115-.032.114-.035.226-.071.454-.149.905-.322.111-.041.115-.044.222-.088.448-.182.891-.392.108-.05.112-.053.22-.105.439-.217.87-.46 1.702-1.023.114-.073.112-.076.225-.15.449-.31.879-.648.111-.084.105-.085.217-.17.428-.349.838-.724.205-.187.205-.191.404-.386.788-.797 1.497-1.702.088-.109.088-.111.176-.22.34-.445.662-.917.082-.117.079-.117.158-.238.311-.477.597-.976.074-.123.07-.126.141-.249.278-.507.527-1.031.062-.132.064-.132.123-.263.241-.531.454-1.081.099-.257.097-.255.19-.519.044-.129.047-.132.088-.26.173-.528.082-.263.079-.267.152-.536.282-1.084.032-.135.032-.138.062-.272.117-.551.026-.14.027-.138.052-.278.097-.557.047-.281.082-.563.038-.281.018-.141.017-.143.032-.282.015-.143.015-.141.029-.287.012-.155.014-.152.035-.466.012-.158.027-.466.005-.156.006-.158.006-.155.006-.158.006-.156.003-.158.003-.155.003-.158v-.63l-.012-.633-.006-.158-.003-.158-.009-.159-.006-.158-.035-.633-.011-.158-.024-.319-.014-.158-.012-.158-.032-.32-.015-.158-.018-.158-.035-.32-.082-.635-.023-.159-.024-.161-.05-.316-.105-.639-.059-.316-.061-.319-.132-.636-.032-.147-.035-.149-.068-.296-.146-.592-.038-.146-.038-.15-.082-.293-.167-.589-.044-.149-.044-.146-.091-.293-.191-.586-.41-1.163-.055-.147-.056-.143-.111-.29-.235-.578-.498-1.142-.067-.141-.065-.143-.134-.285-.279-.562-.586-1.116-.073-.135-.076-.135-.152-.272-.314-.536-.656-1.061-.17-.264-.173-.26-.354-.519-.736-1.022-.096-.126-.094-.126-.194-.252-.392-.498-.815-.979-1.74-1.878-.123-.126-.123-.123-.249-.243-.51-.483-1.046-.941-.134-.114-.132-.114-.273-.229-.547-.448-1.125-.867-.144-.106-.147-.105-.29-.208-.585-.407-1.202-.789-.152-.093-.152-.097-.308-.187-.621-.367-1.272-.7-.149-.079-.149-.076-.305-.155-.609-.302-1.24-.571-.158-.068-.155-.07-.317-.132-.635-.261-1.289-.486-.162-.059-.164-.055-.328-.115-.656-.213-.167-.053-.164-.053-.334-.1-.668-.193-.167-.047-.17-.047-.337-.088-.677-.169-.339-.082-.343-.08-.686-.146-.187-.038-.938-.176-.378-.061-.187-.033-.191-.029-.378-.059-.761-.102-.381-.047-.384-.041-.193-.021-.191-.02-.383-.035-.774-.059-.58-.035-.58-.026-.196-.009-.387-.012-.196-.003-.194-.003-.196-.003-.193-.003h-.393l-.193.003h-.197l-.196.006-.193.003-.589.018-.589.026-.785.047-.196.015-.393.032-.393.035-.392.041-.387.041-.58.07-.58.08-.19.029-.581.088-.77.134-.387.071-.384.076-.77.161-.19.044-.194.044-.384.091-.764.19-.191.053-.193.05-.381.105-.952.279-.188.058-.38.12-.756.252-.188.065-.187.067-.378.135-.747.278-1.489.607-.172.073-.17.076-.346.152-.683.314-1.353.668-.17.088-.501.263-.665.367-1.316.767-.161.097-.164.102-.322.202-.645.414-1.268.864-2.455 1.866-.164.135-.484.404-.635.551-1.245 1.145-.156.147-.152.146-.302.296-.598.604-1.166 1.245-.143.161-.141.158-.284.323-.554.653-1.078 1.339-2.009 2.818-.223.34-.217.343-.431.691-.823 1.406-.099.179-.097.179-.196.36-.381.727-.727 1.473-.088.188-.088.184-.17.378-.334.756-.624 1.532-.073.194-.076.196-.144.387-.281.785-.518 1.585-.059.196-.061.196-.115.396-.222.791-.106.398-.102.399-.194.8-.047.202-.044.202-.09.404-.167.809-.038.205-.041.202-.074.41-.14.818-.065.41-.061.413-.03.208-.026.205-.056.413-.026.208-.023.208-.047.413-.024.208-.02.208-.038.419-.021.208-.017.208-.015.208-.018.211-.014.208-.015.211-.023.419-.012.211-.012.208-.026.633-.012.422-.006.208-.003.231-.006.457v.689l.003.228.003.231.003.229.006.231.006.229.009.231.009.229.008.231.012.229.012.231.011.229.03.463.017.228.035.463.039.46.046.463.047.46.112.923.032.228.029.232.068.46.146.923.038.228.041.232.085.459.179.917.099.458.1.459.217.915.486 1.819.123.422.126.425.267.84.577 1.673.152.416.158.416.329.826.697 1.641.091.205.091.202.187.408.387.808.817 1.597 1.808 3.123.263.416.267.41.545.82 1.143 1.609.146.199.149.199.299.393.613.782 1.268 1.529.328.375.331.372.674.739 1.392 1.438 2.959 2.731.178.152.182.152.363.302.736.595 1.506 1.154.38.281.387.279.782.545 1.594 1.051.404.252.408.252.823.492 1.676.941.211.114.213.114.428.223.861.434 1.75.826.433.193.434.191.879.369 1.778.691.451.164.448.161.909.308 1.834.571.231.068.231.064.463.132.935.246.231.059.235.058.471.111.944.217.234.05.237.05.475.097.955.184.237.041.241.044.477.079.964.15.522.076.524.067.264.035.263.03.525.061.263.026.267.027.527.05.264.023.267.024.53.038.264.017.266.018.267.014.263.015.267.015.267.011 1.066.036.267.003.269.005.533.006h.537l.266-.003.27-.003.266-.005.27-.006.266-.006.27-.009.267-.009.539-.023.266-.015.539-.029.267-.018.269-.017.536-.041.54-.047.536-.05.269-.029.267-.027.539-.061.266-.032.27-.036.536-.07 1.075-.158.498-.082.501-.085.999-.185.249-.047.249-.049.498-.106.994-.217.498-.117.495-.12.987-.258 1.969-.562.492-.153.489-.155.973-.325 1.936-.706.481-.188.48-.19.956-.396 1.892-.843.51-.241.507-.246 1.005-.506 1.992-1.073.246-.137.246-.141.489-.287.973-.583 1.913-1.228.237-.161.238-.158.468-.325.932-.659 1.828-1.38 3.507-2.977.208-.19.208-.194.413-.389.817-.788 1.588-1.629.197-.208.193-.211.384-.422.761-.853 1.471-1.755.182-.222.178-.226.355-.451.697-.914 1.348-1.869 2.487-3.902.138-.235.135-.234.269-.472.525-.949 1.002-1.934.12-.243.12-.246.234-.489.46-.99.87-2.01.103-.252.307-.765.39-1.025.097-.258.093-.258.185-.518.357-1.04.088-.261.085-.264.167-.524.32-1.058.589-2.133.076-.29.07-.293.144-.583.266-1.175.062-.292.064-.296.117-.592.226-1.187.05-.296.052-.298.097-.598.094-.598.085-.6.041-.299.041-.302.073-.601.07-.603.065-.604.029-.304.029-.302.027-.302.026-.304.024-.302.023-.305.041-.609.018-.305.017-.302.015-.304.015-.308.014-.305.009-.304.012-.305.009-.305.005-.307.006-.305.003-.308.003-.304.003-.308v-.305l-.003-.307-.003-.305-.012-.615-.005-.305-.009-.308-.035-.922-.015-.305-.018-.287-.014-.287-.018-.287-.02-.287-.018-.288-.094-1.148-.026-.284-.059-.574-.129-1.149-.035-.284-.035-.287-.079-.574-.17-1.143-.044-.287-.047-.287-.099-.571-.208-1.14-.059-.284-.056-.284-.117-.572-.252-1.134-.134-.568-.138-.565-.29-1.131-.076-.281-.238-.844-.334-1.119-.723-2.23-.094-.272-.097-.273-.196-.542-.401-1.078-.868-2.141-.228-.534-.232-.53-.48-1.055-1.017-2.086-.134-.257-.132-.261-.27-.516-.556-1.022-1.163-2.025-2.546-3.934-.182-.261-.185-.261-.372-.518-.758-1.026-1.582-2.015-.203-.246-.205-.249-.41-.493-.841-.969-1.734-1.902-.223-.234-.222-.231-.452-.463-.914-.911-1.88-1.776-3.976-3.349-.24-.187-.243-.185-.484-.369-.981-.723-1.998-1.398-.51-.34-.513-.334-1.034-.656-2.103-1.263-.534-.304-.536-.299-1.084-.586-2.197-1.116-.557-.27-.559-.261-1.125-.512-2.282-.967-.323-.126-.322-.129-.647-.249-1.301-.48-.328-.118-.329-.114-.656-.222-1.324-.431-.334-.106-.331-.102-.668-.199-1.345-.378-.674-.182-.676-.173-1.363-.328-.339-.076-.343-.076-.686-.15-1.377-.275-.345-.065-.343-.061-.695-.123-1.388-.22-.349-.053-.348-.049-.701-.094-.697-.088-.703-.079-.703-.076-1.055-.097-.351-.029-.355-.027-.351-.026" stroke-width="8.1" stroke="#0051CB" fill="none" />
  <path d="M93.396 222.776h-.053l-.018.003h-.053l-.017.003h-.032l-.018.003h-.018l-.017.003h-.018l-.035.003-.035.006-.032.003-.106.017-.032.006-.07.015-.018.003-.014.003-.036.009-.067.017-.018.006-.017.003-.032.012-.068.02-.017.006-.015.006-.035.012-.065.026-.131.053-.036.017-.032.018-.105.053-.032.017-.068.041-.017.009-.018.012-.032.02-.065.044-.129.091-.014.012-.018.014-.029.024-.062.052-.12.109-.014.012-.044.044-.056.058-.108.123-.024.029-.026.03-.047.061-.091.129-.012.015-.011.017-.021.033-.044.067-.079.138-.009.017-.011.018-.018.038-.035.07-.009.021-.009.017-.017.038-.035.074-.009.02-.006.018-.018.038-.029.079-.056.158-.006.021-.017.058-.024.079-.011.041-.009.041-.021.082-.005.021-.003.023-.009.041-.006.021-.003.02-.009.044-.006.041-.008.044-.012.085-.003.021-.003.023-.006.044-.003.021-.003.023-.003.044-.003.021v.023l-.002.021v.023l-.003.02v.024l-.003.02v.024l-.003.023v.044l-.003.024v.225l.003.024v.073l.003.023v.027l.003.026v.024l.005.049v.027l.003.026.006.05.003.023.009.079.003.024.003.026.009.05.005.053.009.05.006.026.003.026.012.05.02.106.006.023.018.079.026.103.012.052.014.053.033.103.008.026.006.026.053.156.079.208.012.023.009.026.02.047.041.097.094.193.023.047.024.05.053.094.108.19.015.024.011.023.03.047.061.097.126.184.278.366.018.024.021.023.041.05.085.094.172.19.047.047.047.044.094.094.193.179.024.02.026.024.05.044.102.084.214.17.454.317.03.02.088.053.12.073.246.138.029.018.032.017.062.032.129.065.26.126.033.014.035.015.064.029.135.056.278.108.071.024.07.026.141.047.29.091.035.009.035.011.067.018.282.07.14.033.035.008.036.006.073.015.143.029.035.006.039.006.073.015.146.02.035.006.039.006.073.011.038.003.038.006.073.009.038.003.038.006.074.009.38.029.077.003.076.006h.041l.038.003h.038l.038.003h.12l.044.003h.211l.044-.003h.085l.041-.003h.044l.044-.003h.041l.044-.003h.044l.044-.003.041-.003.132-.009.041-.003.088-.006.043-.006.044-.002.088-.009.173-.021.044-.006.044-.003.088-.011.176-.027.047-.008.044-.006.087-.015.176-.032.044-.009.047-.009.088-.017.179-.038.354-.088.044-.012.041-.012.082-.02.167-.05.334-.103.085-.029.082-.029.167-.059.334-.129.041-.017.041-.015.085-.035.164-.073.331-.15.656-.34.041-.02.039-.023.082-.047.158-.091.313-.196.041-.024.038-.026.079-.053.156-.103.307-.216.038-.03.038-.026.077-.059.152-.114.302-.24.583-.513.041-.038.038-.035.076-.073.155-.153.302-.307.038-.041.035-.038.074-.082.146-.161.287-.334.035-.044.035-.041.071-.088.137-.173.27-.361.51-.752.029-.044.026-.047.059-.091.111-.185.214-.375.027-.049.026-.047.05-.097.102-.193.197-.396.093-.199.091-.205.173-.41.041-.106.044-.105.079-.211.152-.428.018-.059.021-.058.038-.12.076-.238.017-.058.018-.062.035-.12.065-.24.017-.062.015-.061.032-.123.059-.246.108-.495.015-.065.011-.061.024-.126.044-.255.011-.065.009-.061.021-.129.038-.258.017-.129.015-.129.009-.064.006-.065.014-.131.012-.129.012-.132.006-.065.006-.067.011-.132.003-.064.006-.065.006-.129.003-.067.009-.193.003-.068.005-.129v-.067l.003-.065v-.067l.003-.064v-.396l-.003-.067v-.132l-.003-.067v-.068l-.003-.064-.008-.202-.006-.132-.003-.068-.006-.067-.009-.132-.003-.067-.041-.472-.029-.269-.009-.068-.006-.067-.017-.135-.038-.272-.012-.068-.009-.067-.02-.135-.047-.272-.012-.062-.012-.064-.023-.126-.053-.255-.012-.065-.014-.061-.027-.126-.058-.255-.018-.065-.014-.061-.033-.129-.064-.252-.144-.507-.02-.064-.021-.062-.038-.129-.082-.252-.176-.504-.023-.064-.023-.062-.047-.126-.097-.251-.205-.501-.059-.135-.184-.404-.261-.537-.032-.064-.035-.067-.068-.132-.143-.267-.296-.524-.038-.068-.038-.064-.079-.129-.162-.261-.331-.512-.72-1.005-.044-.059-.047-.059-.088-.114-.182-.228-.378-.452-.796-.873-.053-.055-.053-.053-.102-.105-.214-.211-.437-.416-.914-.797-.258-.211-.26-.205-.537-.399-.134-.099-.138-.097-.278-.19-.566-.372-.073-.047-.07-.044-.147-.091-.29-.176-.598-.34-1.23-.63-.079-.035-.076-.038-.159-.07-.313-.141-.636-.266-.079-.033-.082-.032-.161-.061-.325-.123-.659-.229-.085-.029-.082-.027-.167-.052-.337-.106-.085-.023-.085-.027-.51-.14-.088-.024-.085-.023-.173-.044-.345-.082-.698-.155-.082-.015-.085-.018-.164-.032-.331-.058-.164-.03-.167-.026-.334-.05-.085-.012-.082-.011-.17-.024-.082-.011-.085-.012-.17-.018-.085-.012-.085-.008-.167-.018-.339-.032-.088-.009-.085-.006-.17-.014-.17-.012-.173-.009-.085-.006-.088-.006-.085-.003-.085-.005-.088-.003-.085-.003-.087-.003-.085-.003-.088-.003-.085-.003-.088-.003h-.085l-.088-.003h-.173l-.088-.003h-.173l-.087.003h-.173l-.088.003h-.088l-.085.003-.097.003-.187.006-.097.003-.094.003-.096.006-.191.008-.094.006-.096.006-.191.012-.093.006-.097.008-.191.015-.093.009-.097.009-.19.017-.097.012-.094.009-.193.02-.094.012-.097.012-.19.023-.384.056-.096.011-.097.015-.191.032-.383.065-.097.017-.094.018-.193.035-.384.079-.094.021-.29.061-.381.088-.764.199-.091.024-.088.023-.536.158-.709.226-.088.029-.088.033-.179.058-.351.129-.703.267-.088.035-.088.038-.176.07-.348.147-.692.313-1.371.686-.164.088-.167.093-.328.185-.656.387-1.284.832-.316.222-.313.223-.619.466-1.207.987-.079.07-.082.071-.158.14-.316.287-.622.589-.079.074-.228.228-.302.308-.589.633-.146.158-.431.492-.557.671-1.063 1.403-.059.085-.061.082-.117.17-.232.343-.454.697-.111.176-.325.536-.416.727-.05.09-.053.094-.1.185-.196.372-.381.756-.697 1.549-.047.109-.044.105-.255.651-.322.876-.038.108-.038.111-.22.668-.269.903-.033.114-.029.114-.061.229-.121.457-.029.117-.026.114-.056.232-.105.463-.027.117-.023.117-.05.234-.091.469-.02.117-.024.117-.041.238-.076.471-.088.586-.073.586-.029.238-.047.471-.012.12-.012.118-.02.24-.009.117-.009.12-.017.237-.009.121-.006.12-.006.117-.009.12-.011.24-.003.12-.006.12-.003.121-.006.12-.009.36v.12l-.003.12v.243l-.003.121v.12l.003.12v.123l.003.12v.12l.003.123.006.24.003.123.006.12.003.124.006.12.011.243.006.12.009.123.015.243.008.123.009.12.018.243.009.115.011.114.021.226.012.114.008.114.027.229.011.114.012.111.088.686.015.111.017.114.033.229.07.454.164.911.023.114.021.115.047.225.096.454.214.908.03.115.029.111.058.229.124.451.266.899.076.246.079.243.162.484.348.967.047.12.044.12.094.24.193.481.407.952.053.117.056.12.108.234.223.472.466.935 1.025 1.837.061.105.065.105.129.208.264.419.542.83 1.16 1.62.304.398.314.393.641.773 1.351 1.506.088.088.085.091.173.178.351.355.721.697 1.5 1.339.193.164.197.161.392.32.8.621 1.661 1.186.117.079.115.076.234.153.469.302.952.583.12.073.123.07.243.141.489.272.994.53.252.129.252.126.509.249 1.032.475 2.112.861.252.094.252.091.504.176 1.022.334.258.082.258.076.518.149 1.043.282.528.128.53.123.132.03.134.029.264.056.536.108.135.026.132.027.269.05.539.093.135.021.135.023.272.041.542.079.147.021.149.02.296.039.147.017.149.018.296.032.149.018.15.014.296.029.149.015.15.012.298.026.15.012.149.009.153.011.448.027.302.017.298.012.153.006.149.006.153.006.149.003.152.005.15.003.152.003h.152l.15.003h.759l.149-.003.457-.008.152-.006.15-.003.609-.024.61-.035.304-.02.762-.059.457-.044.144-.015.14-.014.287-.032.569-.071.143-.017.141-.018.287-.041.568-.085.144-.023.14-.021.853-.149 1.137-.226.143-.032.141-.029.284-.065.566-.135 1.127-.29.141-.038.141-.041.281-.079.562-.164 1.12-.357.134-.044.138-.047.273-.094.544-.193 1.081-.41.135-.053.135-.056.27-.108.536-.226 1.066-.471.527-.247.528-.254 1.046-.534 2.053-1.151.138-.085.138-.082.272-.167.545-.343 1.075-.709.132-.091.135-.09.264-.185.527-.375 1.04-.779.126-.097.129-.102.255-.2.507-.41.999-.841 1.927-1.778.112-.108.325-.326.433-.439.844-.899 1.626-1.875.097-.121.1-.12.193-.243.384-.489.753-.999 1.426-2.066.091-.143.094-.144.182-.287.36-.58.694-1.183.17-.299.167-.299.325-.607.63-1.227.076-.155.074-.156.149-.313.293-.627.557-1.272.134-.322.132-.322.255-.648.484-1.309.058-.164.056-.161.108-.325.217-.657.401-1.318.094-.334.091-.334.179-.668.325-1.351.076-.339.07-.34.141-.686.032-.17.032-.173.065-.342.117-.689.029-.173.079-.518.1-.695.024-.175.023-.173.044-.349.079-.7.015-.161.017-.164.032-.328.03-.329.026-.328.047-.656.009-.164.011-.164.018-.331.006-.164.009-.167.006-.164.008-.164.006-.167.003-.164.006-.167.003-.164.006-.167.003-.164.003-.167v-.164l.003-.167v-.663l-.003-.167v-.167l-.003-.167-.003-.164-.006-.167-.003-.167-.012-.334-.006-.164-.011-.334-.035-.668-.009-.164-.059-.835-.058-.668-.033-.334-.07-.668-.02-.178-.021-.182-.047-.36-.097-.724-.052-.363-.056-.361-.12-.723-.032-.179-.032-.181-.068-.361-.141-.721-.313-1.435-.044-.182-.041-.178-.091-.358-.184-.715-.402-1.424-.105-.357-.111-.354-.226-.707-.489-1.406-.059-.164-.061-.164-.124-.325-.249-.65-.533-1.292-.067-.162-.211-.483-.29-.639-.604-1.268-.158-.317-.158-.313-.325-.624-.677-1.242-1.462-2.432-.187-.293-.191-.293-.389-.58-.8-1.148-1.702-2.239-.109-.137-.111-.138-.223-.273-.454-.542-.929-1.066-1.951-2.062-.137-.138-.138-.135-.276-.272-.559-.534-1.143-1.051-.146-.129-.144-.126-.293-.258-.592-.504-1.209-.984-.153-.123-.155-.12-.311-.238-.624-.474-1.271-.917-2.631-1.732-.155-.096-.158-.097-.317-.191-.636-.372-1.289-.726-.328-.176-.325-.173-.659-.34-1.336-.656-.167-.079-.17-.079-.337-.158-.68-.305-1.377-.586-.345-.141-.349-.137-.697-.27-1.412-.513-.797-.269-.8-.258-.202-.061-.199-.062-.405-.123-.811-.234-.202-.056-.205-.056-.408-.108-.82-.211-1.649-.384-.416-.088-.416-.082-.835-.161-.208-.038-.211-.038-.419-.073-.844-.135-.211-.032-.211-.03-.422-.061-.211-.026-.214-.03-.424-.052-.211-.027-.214-.023-.425-.047-.214-.024-.211-.02-.427-.041" stroke-width="8.1" stroke="#0051CB" fill="none" />
  <path d="M93.396 109.567h-.091l-.021.003h-.023l-.021.003h-.023l-.024.003h-.02l-.024.003-.02.003-.024.003h-.023l-.044.006-.02.003-.024.006-.044.005-.023.003-.021.006-.044.009-.023.006-.021.003-.131.035-.041.012-.044.014-.085.03-.024.006-.02.008-.041.015-.085.035-.021.012-.061.026-.082.044-.162.091-.02.012-.023.014-.041.027-.085.058-.041.03-.039.029-.082.064-.02.018-.018.015-.114.105-.146.149-.018.021-.018.018-.035.041-.067.082-.018.02-.014.024-.033.041-.064.087-.029.047-.03.044-.058.094-.106.193-.023.047-.024.05-.043.094-.009.026-.012.024-.018.049-.038.1-.011.026-.009.027-.015.05-.035.105-.006.026-.009.027-.014.052-.027.109-.011.053-.012.055-.006.027-.006.029-.009.056-.005.026-.003.029-.009.056-.003.029-.006.027-.009.087-.003.027-.008.088v.029l-.006.059v.029l-.003.029v.059l-.003.029v.205l.003.03v.061l.003.029v.03l.008.088v.032l.009.088.003.032.006.029.006.059.006.032.003.029.008.062.006.029.006.032.009.059.026.123.006.032.006.029.015.062.032.123.009.029.009.033.017.061.038.123.009.029.012.033.02.061.044.123.103.246.014.033.015.035.029.064.065.135.035.064.032.068.073.132.021.032.017.032.039.065.082.128.175.258.021.032.023.033.047.061.1.126.205.246.026.03.03.029.055.061.112.121.24.231.117.105.12.103.249.202.032.024.033.026.064.047.135.096.275.185.035.021.035.023.074.044.146.085.299.164.041.018.038.02.076.038.158.076.326.138.044.021.044.017.09.035.185.068.044.014.047.018.094.029.19.062.047.011.047.015.096.029.197.05.049.012.047.012.1.023.202.044.05.009.05.011.102.018.05.009.053.009.102.017.05.009.053.006.105.014.05.006.053.009.158.018.053.003.053.006.055.005.053.003.053.006.052.003.056.003.106.006.055.003.053.003.056.003h.052l.056.003h.434l.052-.003h.056l.053-.003.111-.006.053-.003.222-.012.053-.006.112-.008.278-.03.056-.009.111-.014.225-.032.056-.009.056-.012.111-.017.226-.044.058-.012.056-.012.114-.026.226-.056.055-.012.059-.014.111-.032.229-.065.454-.146.105-.036.109-.038.211-.082.422-.173.211-.093.208-.1.419-.214.049-.026.053-.029.103-.056.208-.12.407-.249.803-.56.211-.164.21-.17.414-.357.049-.044.053-.047.1-.094.199-.193.393-.399.046-.052.05-.05.094-.106.187-.213.367-.44.685-.943.076-.117.077-.115.146-.237.281-.48.035-.062.036-.064.064-.124.132-.251.249-.513.032-.068.029-.064.059-.132.114-.266.027-.068.029-.067.053-.135.105-.272.024-.071.026-.067.05-.141.094-.278.175-.568.021-.074.02-.07.038-.141.074-.287.017-.073.018-.07.035-.147.061-.29.03-.146.029-.15.053-.296.012-.073.014-.076.021-.149.044-.302.017-.153.021-.149.006-.079.008-.076.015-.153.009-.076.012-.152.005-.079.006-.076.006-.079.009-.153.003-.079.006-.076.006-.158.002-.076.003-.08v-.079l.003-.076v-.079l.003-.079v-.396l-.003-.079v-.085l-.003-.085-.003-.087-.002-.085-.003-.088-.006-.085-.003-.088-.006-.085-.006-.088-.006-.085-.011-.176-.006-.085-.009-.088-.015-.175-.009-.085-.011-.088-.018-.176-.023-.176-.024-.173-.023-.175-.103-.616-.052-.263-.074-.352-.041-.176-.041-.178-.091-.352-.046-.176-.05-.175-.103-.352-.231-.703-.03-.079-.087-.246-.126-.326-.267-.647-.035-.082-.038-.079-.071-.161-.152-.323-.322-.635-.082-.159-.088-.158-.176-.313-.375-.624-.823-1.216-.059-.079-.061-.082-.12-.161-.249-.32-.522-.624-.064-.079-.068-.076-.137-.152-.279-.305-.577-.592-.073-.073-.076-.073-.15-.144-.307-.284-.633-.554-1.348-1.046-.17-.123-.175-.12-.352-.237-.724-.454-.09-.056-.094-.055-.185-.109-.375-.211-.77-.404-.097-.05-.097-.047-.196-.094-.398-.187-.809-.349-.103-.041-.105-.041-.205-.082-.416-.155-.85-.29-.199-.065-.199-.061-.407-.117-.1-.027-.103-.029-.205-.056-.515-.128-.103-.024-.208-.047-.419-.091-.102-.02-.317-.062-.424-.073-.106-.02-.108-.015-.211-.035-.217-.029-.214-.03-.108-.014-.109-.012-.214-.026-.216-.024-.22-.023-.434-.036-.111-.008-.108-.009-.22-.012-.111-.009-.109-.005-.111-.003-.109-.006-.111-.003-.111-.006-.112-.003-.108-.003-.12-.003h-.12l-.123-.003h-.361l-.12.003h-.123l-.24.006-.123.003-.12.003-.123.006-.12.006-.123.005-.121.006-.123.006-.12.009-.246.018-.12.008-.123.009-.243.024-.246.023-.243.026-.493.062-.123.017-.12.015-.246.038-.492.079-.123.024-.123.02-.243.047-.492.1-.247.052-.243.056-.492.12-.975.27-.115.035-.114.032-.228.07-.455.15-.902.322-.111.041-.115.044-.225.088-.445.182-.891.392-.111.05-.109.053-.222.105-.437.217-.87.46-1.702 1.022-.114.074-.115.076-.225.149-.446.311-.881.65-.109.082-.108.085-.214.17-.428.349-.838.726-.105.091-.103.097-.202.187-.404.387-.791.797-1.497 1.702-.088.111-.088.109-.173.22-.343.448-.662.917-.079.114-.079.117-.158.238-.314.477-.594.976-.074.126-.07.123-.144.249-.275.507-.527 1.031-.065.132-.184.395-.243.53-.452 1.084-.049.126-.05.129-.097.255-.19.519-.047.129-.044.131-.088.261-.173.528-.041.131-.041.135-.079.264-.155.536-.279 1.084-.032.135-.032.137-.062.276-.117.551-.026.137-.029.138-.15.835-.02.141-.024.14-.082.563-.038.281-.018.141-.017.143-.032.284-.015.141-.015.143-.029.285-.015.155-.011.155-.015.155-.012.156-.008.155-.012.155-.027.466-.005.158-.009.156-.006.155-.003.158-.006.155-.006.317-.003.155v.158l-.003.158v.156l.003.158v.158l.006.316.006.159.003.158.012.316.009.158.005.159.018.316.023.316.024.32.012.158.014.158.03.32.035.316.035.319.082.636.023.161.024.158.047.32.108.635.059.317.061.319.132.636.032.149.035.147.068.296.146.592.038.146.038.149.079.296.167.589.044.147.047.146.088.293.191.586.413 1.163.055.147.053.143.114.29.235.577.498 1.143.064.144.068.14.134.284.276.563.586 1.116.076.135.076.138.152.269.314.536.656 1.064.085.129.085.131.173.261.354.519.736 1.025.094.126.096.126.194.249.392.498.812.979 1.74 1.88.123.124.126.123.249.243.507.483 1.049.941.131.117.135.114.27.226.55.448 1.126.867.287.211.29.208.586.407 1.201.788.152.094.155.097.308.187.621.366 1.269.701.152.079.149.079.302.152.61.302 1.242.571.155.071.158.067.317.132.635.26 1.286.487.165.058.164.056.325.114.659.214.164.053.167.053.331.099.671.194.334.093.337.088.68.173.169.038.17.041.343.079.686.147.187.038.188.035.372.073.19.033.188.035.378.064.187.029.191.03.378.058.761.103.381.047.384.041.19.02.194.021.383.035.194.015.19.017.194.015.193.012.193.014.194.012.193.009.193.011.197.009.193.006.193.009.197.006.193.006.193.002.197.003.193.003.196.003h.39l.196-.003h.197l.193-.003.196-.005.197-.003.196-.006.196-.009.196-.006.197-.009.193-.011.196-.009.393-.027.199-.011.196-.015.393-.032.393-.035.392-.041.387-.041.58-.071.19-.026.387-.053.193-.029.194-.026.387-.062.77-.135.193-.035.191-.035.387-.076.767-.161.193-.044.191-.044.384-.091.767-.19.191-.05.571-.158.762-.22.381-.117.378-.12.755-.252.191-.065.187-.064.375-.135.75-.281 1.489-.607.17-.073.172-.076.343-.153.686-.313 1.353-.668.334-.176.337-.176.665-.366 1.316-.764.161-.1.164-.1.322-.202.645-.416 1.265-.861 2.458-1.869.161-.135.161-.132.323-.272.638-.551 1.246-1.143.152-.146.152-.15.305-.296.598-.603 1.166-1.245.143-.158.422-.484.557-.653 1.078-1.339 2.01-2.818.111-.167.108-.173.22-.34.428-.691.823-1.41.199-.357.196-.36.381-.724.727-1.477.088-.184.088-.188.17-.375.331-.755.627-1.536.146-.386.147-.39.278-.785.521-1.585.235-.785.219-.794.053-.196.053-.2.102-.401.197-.8.047-.202.044-.202.087-.402.17-.811.038-.205.039-.202.076-.408.14-.82.065-.41.058-.413.03-.205.029-.208.053-.413.026-.208.026-.205.047-.416.082-.832.018-.211.035-.416.015-.211.017-.208.012-.211.026-.419.012-.208.009-.211.012-.211.008-.211.006-.211.009-.208.006-.211.003-.211.006-.228.003-.232.003-.228v-.689l-.006-.457-.006-.231-.003-.229-.009-.231-.006-.229-.008-.231-.009-.229-.024-.463-.011-.228-.03-.463-.017-.228-.035-.463-.041-.46-.021-.232-.023-.228-.05-.463-.109-.923-.032-.229-.032-.231-.065-.46-.146-.92-.041-.231-.038-.229-.085-.46-.182-.92-.047-.228-.049-.229-.103-.46-.214-.914-.486-1.819-.123-.422-.129-.422-.264-.844-.577-1.672-.076-.208-.079-.208-.155-.417-.329-.826-.697-1.64-.091-.205-.093-.203-.188-.407-.387-.805-.814-1.6-1.808-3.123-.132-.208-.131-.205-.267-.413-.545-.821-1.142-1.608-.147-.199-.149-.199-.299-.393-.613-.779-1.268-1.532-.328-.375-.331-.373-.674-.738-1.392-1.438-2.959-2.731-.181-.152-.179-.152-.363-.302-.736-.595-1.506-1.154-.19-.141-.193-.141-.387-.275-.779-.548-1.594-1.049-.202-.128-.202-.126-.408-.252-.823-.493-1.676-.94-.211-.114-.213-.112-.428-.225-.861-.434-1.749-.826-.434-.193-.437-.191-.876-.369-1.781-.691-.222-.082-.226-.082-.451-.162-.906-.307-1.834-.571-.231-.068-.231-.064-.466-.129-.932-.246-.234-.062-.235-.055-.468-.115-.944-.214-.237-.052-.237-.05-.475-.097-.952-.181-.237-.044-.721-.123-.961-.15-.261-.038-.263-.035-.525-.07-.261-.033-.263-.032-.791-.088-.264-.026-.527-.05-.267-.023-.264-.021-.53-.041-.266-.017-.264-.018-.533-.029-.267-.012-.264-.012-.266-.011-.533-.018-.27-.006-.533-.012-.267-.003h-.266l-.27-.002-.266.002h-.27l-.267.003-.266.006-.539.012-.267.009-.269.011-.267.009-.27.012-.269.015-.267.014-.269.015-.27.017-.266.021-.539.038-.267.024-.27.023-.536.053-.269.026-.27.029-.536.062-.269.032-.267.032-.539.074-1.072.155-.249.041-.252.041-.498.085-.999.184-.498.1-.498.103-.997.219-.246.056-.249.059-.495.123-.99.254-1.969.563-.243.076-.246.076-.489.156-.976.328-1.933.703-.481.187-.48.191-.955.395-1.893.844-.51.24-.507.246-1.007.507-1.99 1.072-.246.138-.246.141-.489.287-.973.583-1.916 1.227-.234.162-.238.158-.468.325-.932.662-1.828 1.377-3.51 2.977-.208.19-.208.193-.41.39-.817.791-1.591 1.629-.387.416-.387.422-.758.852-1.474 1.755-.179.223-.178.226-.355.451-.697.914-1.348 1.869-2.49 3.905-.135.232-.138.234-.266.472-.525.952-1.002 1.93-.12.244-.12.246-.237.492-.46.99-.867 2.007-.106.252-.102.255-.202.51-.393 1.025-.187.516-.188.518-.354 1.04-.088.264-.085.261-.167.524-.323 1.058-.588 2.132-.074.29-.073.293-.141.583-.266 1.175-.065.293-.061.296-.12.592-.223 1.186-.053.299-.049.296-.097.598-.094.598-.085.6-.041.299-.041.302-.076.6-.035.302-.032.302-.065.606-.058.604-.027.304-.026.302-.024.305-.023.302-.062.914-.014.304-.018.305-.014.305-.024.609-.009.305-.008.307-.012.61-.006.307-.003.305v.612l.006.616.003.304.006.308.008.308.009.304.009.308.015.307.011.308.015.308.015.287.017.284.035.574.041.574.047.575.053.574.056.571.129 1.149.038.287.035.284.076.574.17 1.146.047.284.047.287.096.571.211 1.14.056.284.059.287.117.569.252 1.136.064.281.068.285.137.565.293 1.131.076.281.238.844.331 1.122.726 2.227.094.272.097.273.193.541.404 1.079.868 2.141.111.267.117.266.232.531.48 1.054 1.017 2.086.131.261.405.774.556 1.022 1.163 2.024 2.546 3.935.182.261.185.26.372.519.758 1.025 1.58 2.016.202.249.205.246.413.492.838.973 1.734 1.901.223.232.225.234.449.46.914.914 1.883 1.776 3.976 3.345.24.188.241.184.486.369.978.724 2.001 1.398.51.339.51.334 1.034.657 2.104 1.262.266.153.27.152.536.299 1.081.586 2.2 1.116.275.135.282.135.556.263 1.128.51 2.283.967.322.129.322.126.645.249 1.303.48.328.117.329.115.656.225 1.324.431.331.102.334.103.668.199 1.342.378.34.091.337.091.676.173 1.36.328.342.079.343.076.686.146 1.374.276.691.129.692.12 1.391.223.697.099.698.094.351.044.349.044.7.082.352.035.351.038.703.067.355.03.703.058.355.024" stroke-width="8.1" stroke="#0051CB" fill="none" />
  <path d="M93.396 109.567h.07l.014-.003h.053l.018-.002h.035l.018-.003h.017l.018-.003.035-.003.014-.003.018-.003.035-.003.071-.012.014-.003.053-.008.067-.012.018-.006.017-.003.036-.009.067-.017.015-.006.017-.003.035-.012.068-.02.014-.006.018-.006.032-.012.068-.023.128-.056.141-.07.015-.009.053-.026.067-.041.017-.009.015-.012.035-.02.065-.044.129-.091.029-.024.032-.026.062-.05.117-.108.058-.059.056-.058.111-.123.047-.059.05-.062.091-.126.012-.017.008-.018.024-.032.041-.067.082-.138.018-.035.02-.035.035-.074.009-.017.009-.021.017-.035.033-.076.008-.02.009-.018.015-.038.032-.079.056-.158.006-.018.017-.062.024-.079.011-.041.009-.041.021-.082.003-.02.005-.021.009-.044.003-.02.006-.021.009-.041.003-.023.003-.021.008-.041.012-.088.003-.02.003-.023.006-.041v-.024l.003-.02.006-.044v-.024l.003-.02.002-.024v-.02l.003-.024v-.023l.003-.021v-.047l.003-.02v-.067l.003-.024v-.158l-.003-.024v-.07l-.003-.026v-.024l-.003-.026v-.023l-.003-.027-.002-.05-.003-.026-.003-.023-.003-.053-.003-.024-.003-.026-.006-.05-.006-.052-.009-.05-.003-.027-.005-.026-.006-.05-.012-.053-.009-.049-.02-.103-.024-.105-.026-.103-.006-.026-.009-.027-.014-.049-.03-.106-.017-.053-.015-.049-.038-.106-.079-.208-.018-.047-.02-.05-.044-.096-.091-.194-.023-.047-.027-.046-.05-.097-.108-.191-.117-.187-.126-.188-.278-.363-.021-.026-.02-.024-.041-.049-.083-.094-.175-.191-.091-.09-.094-.091-.193-.182-.027-.02-.023-.024-.053-.044-.102-.085-.214-.17-.454-.316-.03-.018-.029-.02-.058-.035-.118-.074-.246-.137-.032-.018-.029-.017-.191-.097-.26-.123-.036-.015-.032-.017-.067-.03-.135-.055-.275-.109-.071-.023-.07-.026-.144-.047-.29-.091-.032-.009-.035-.009-.07-.02-.138-.035-.141-.036-.14-.032-.035-.009-.038-.005-.071-.015-.143-.029-.038-.006-.036-.006-.219-.035-.038-.006-.036-.006-.076-.009-.035-.006-.038-.006-.073-.008-.038-.003-.038-.006-.077-.006-.038-.006-.035-.003-.304-.023-.08-.003-.076-.006h-.038l-.038-.003h-.079l-.038-.003h-.123l-.041-.003h-.129l-.041.003h-.129l-.044.003h-.041l-.044.003h-.044l-.041.003-.044.003h-.044l-.044.003-.041.003-.132.009-.085.008-.087.006-.088.009-.176.02-.352.047-.044.009-.044.006-.087.015-.179.032-.176.035-.179.038-.357.088-.082.023-.085.024-.167.047-.334.105-.041.012-.041.015-.085.029-.164.058-.334.129-.041.018-.044.018-.082.032-.167.073-.331.149-.653.34-.041.024-.041.02-.238.141-.316.193-.038.027-.038.023-.079.053-.156.102-.307.22-.041.026-.038.03-.077.055-.149.118-.302.237-.586.513-.038.038-.038.035-.079.076-.152.149-.302.308-.038.041-.038.038-.073.082-.147.161-.284.334-.07.088-.071.085-.137.176-.27.357-.51.753-.029.044-.029.047-.056.091-.111.184-.214.378-.053.094-.053.097-.099.193-.197.396-.046.099-.047.103-.091.202-.176.41-.082.211-.079.211-.152.428-.021.058-.017.059-.042.12-.073.237-.017.059-.018.061-.035.121-.067.24-.015.061-.018.062-.029.123-.061.246-.109.498-.012.062-.011.064-.071.378-.008.064-.012.065-.021.126-.052.387-.015.128-.009.065-.006.067-.014.129-.009.065-.006.067-.012.129-.006.067-.002.065-.012.132-.003.064-.006.065-.003.064-.006.067-.009.194-.003.067-.002.065v.064l-.003.067-.003.065v.064l-.003.068v.527l.003.067v.065l.003.067v.068l.003.064.008.202.006.132.006.135.009.135.006.067.006.064.008.135.012.135.044.404.006.068.026.202.038.272.009.068.012.067.02.135.047.272.012.065.012.061.023.129.05.252.015.065.011.061.03.129.058.252.029.129.033.126.067.252.144.507.02.064.018.064.123.378.173.504.023.065.023.061.047.126.1.252.205.501.117.27.126.269.258.536.035.068.032.064.071.135.14.264.299.527.076.129.079.132.159.258.334.512.72 1.008.044.056.044.058.273.343.378.451.796.876.053.053.05.053.106.108.213.211.434.413.917.8.064.053.062.049.132.106.261.205.536.401.067.047.067.05.138.097.278.193.566.369.07.047.073.044.144.091.293.176.595.34 1.233.629.079.038.076.036.156.07.313.141.639.266.079.032.082.033.161.061.325.123.659.232.082.026.085.026.167.056.337.103.085.023.085.026.17.05.34.094.085.02.088.024.17.044.348.085.698.152.082.015.082.017.164.033.331.058.085.015.082.014.501.08.082.011.085.012.167.021.17.023.167.02.34.036.339.032.085.009.085.006.173.014.17.012.173.012.085.003.085.005.088.003.085.006.085.003.088.003.085.003.087.003.085.003.088.003.085.003h.088l.085.003h.088l.088.003h.346l.087-.003h.176l.085-.003.088-.003h.094l.097-.003.093-.006.097-.003.094-.003.093-.006.191-.009.097-.005.093-.006.191-.012.096-.006.094-.009.191-.014.193-.018.19-.017.094-.009.097-.012.19-.02.194-.024.19-.023.384-.053.097-.015.093-.014.194-.033.383-.064.094-.018.29-.052.381-.077.193-.041.191-.043.384-.088.764-.197.091-.026.088-.023.179-.053.354-.103.712-.228.176-.059.176-.061.354-.126.703-.27.176-.07.173-.073.349-.147.694-.313 1.368-.686.085-.044.082-.044.167-.091.328-.187.653-.387 1.287-.832.079-.056.079-.052.155-.112.314-.225.621-.466 1.207-.987.158-.141.161-.141.316-.287.622-.589.076-.073.228-.228.302-.308.592-.63.073-.082.073-.079.144-.164.284-.328.56-.671 1.063-1.403.059-.082.175-.255.235-.343.454-.697.053-.088.167-.264.213-.36.419-.727.1-.181.1-.188.199-.372.378-.756.7-1.55.044-.108.044-.106.088-.216.17-.431.319-.879.038-.108.114-.334.144-.446.269-.902.065-.228.061-.229.121-.457.026-.114.029-.117.056-.232.105-.463.024-.117.026-.117.047-.232.091-.468.023-.12.062-.352.079-.475.07-.468.015-.118.017-.117.059-.469.026-.237.05-.472.012-.12.012-.117.017-.237.012-.12.009-.12.017-.238.006-.12.009-.117.035-.721.021-.84v-.724l-.003-.123-.003-.12v-.12l-.003-.123-.006-.121-.003-.123-.003-.12-.006-.12-.006-.123-.011-.243-.006-.12-.006-.123-.015-.243-.008-.12-.009-.124-.018-.243-.012-.114-.008-.114-.021-.226-.047-.457-.011-.111-.015-.114-.026-.229-.059-.454-.015-.114-.017-.115-.033-.228-.073-.454-.161-.911-.047-.229-.044-.225-.099-.455-.214-.908-.029-.114-.027-.111-.061-.226-.123-.454-.264-.899-.038-.123-.041-.121-.076-.243-.164-.486-.346-.967-.188-.48-.19-.481-.41-.952-.053-.117-.053-.12-.108-.235-.223-.471-.468-.935-1.023-1.834-.064-.105-.062-.106-.129-.211-.264-.419-.541-.829-1.161-1.62-.152-.199-.155-.196-.311-.396-.641-.773-1.354-1.503-.085-.091-.088-.091-.173-.179-.351-.354-.718-.697-1.5-1.339-.097-.082-.096-.079-.197-.164-.392-.317-.803-.624-1.661-1.186-.114-.08-.118-.076-.231-.152-.469-.302-.952-.583-.123-.07-.12-.073-.243-.138-.489-.275-.994-.531-.252-.129-.252-.126-.509-.249-1.032-.474-2.112-.862-.252-.093-.252-.091-.507-.176-1.019-.334-.129-.041-.129-.038-.258-.079-.518-.149-1.046-.282-.132-.032-.129-.032-.267-.065-.527-.123-.135-.029-.131-.029-.267-.056-.533-.108-.27-.053-.266-.05-.539-.094-.135-.02-.138-.024-.269-.041-.542-.079-.15-.02-.146-.021-.296-.038-.15-.017-.146-.018-.299-.032-.146-.018-.598-.058-.897-.071-.298-.017-.153-.009-.299-.018-.149-.005-.152-.006-.15-.006-.152-.006-.15-.006-.152-.003-.149-.006-.153-.003h-.149l-.152-.003-.15-.002h-.606l-.153.002h-.152l-.152.003-.15.003-.152.003-.152.006-.153.003-.457.018-.149.008-.153.006-.457.027-.304.02-.61.047-.152.015-.152.011-.308.03-.141.014-.143.015-.284.032-.569.07-.143.018-.144.021-.284.038-.568.085-.144.023-.14.023-.288.047-.568.1-1.134.228-.143.03-.141.032-.284.062-.566.134-1.13.29-.141.038-.141.041-.281.08-.559.167-1.12.354-.137.044-.135.047-.273.094-.544.193-1.084.41-.135.056-.135.053-.267.108-.536.226-1.066.471-.132.062-.135.061-.263.123-.528.255-1.043.533-2.053 1.155-.276.164-.275.167-.542.342-1.075.709-.135.091-.132.091-.267.185-.524.378-1.04.776-.258.199-.255.202-.507.408-.996.84-1.93 1.782-.109.105-.108.109-.22.216-.43.44-.847.899-1.623 1.875-.097.12-.099.12-.194.244-.387.489-.75.999-1.426 2.065-.094.144-.273.431-.36.583-.697 1.18-.085.15-.082.149-.167.302-.328.603-.627 1.231-.076.152-.077.158-.149.311-.29.627-.56 1.271-.064.161-.067.162-.132.322-.255.647-.484 1.313-.058.161-.056.161-.111.328-.214.653-.401 1.322-.047.164-.141.501-.176.671-.325 1.35-.038.167-.038.17-.073.343-.138.683-.032.17-.032.172-.065.343-.12.689-.026.172-.03.173-.052.346-.1.694-.023.176-.021.173-.044.349-.079.7-.018.164-.014.161-.032.328-.03.328-.026.328-.059.821-.008.167-.027.492-.006.167-.008.164-.006.164-.006.167-.006.164-.003.167-.006.164-.003.167-.003.164-.003.167-.003.164v.996l.009.501.003.164.006.167.003.167.012.334.008.164.006.167.009.167.006.167.02.334.009.167.012.167.02.331.015.167.012.167.026.334.015.167.017.167.03.334.073.668.02.179.021.182.044.363.1.724.026.178.026.182.056.36.12.724.029.179.033.181.067.361.141.72.316 1.439.041.178.132.537.184.714.402 1.427.053.176.055.179.109.354.228.706.489 1.407.118.328.123.325.252.65.53 1.295.07.161.07.158.141.323.287.638.607 1.269.076.158.079.158.483.941.68 1.239 1.459 2.432.097.146.093.147.191.293.387.58.802 1.148 1.699 2.238.223.276.223.272.454.542.929 1.067 1.951 2.062.137.138.138.135.276.272.559.536 1.143 1.049.143.129.147.129.293.255.592.504 1.209.987.153.12.155.12.308.24.624.472 1.271.917 2.631 1.732.316.193.317.19.636.375 1.289.724.164.088.161.088.328.173.659.339 1.503.739.167.076.34.158.68.305 1.374.586.173.07.175.07.346.138.7.27 1.412.512.2.071.199.067.398.132.8.258.199.064.202.062.405.12.808.234.205.056.202.055.411.112.817.208 1.652.384.416.087.416.085.835.159.208.038.211.038.419.073.841.135.211.032.211.029.425.062.211.029.211.027.424.052.214.027.211.023.428.047.211.023.642.062M206.604 190.433h.024l.02-.003h.068l.023-.003h.021l.023-.003h.024l.02-.003h.024l.02-.003.047-.006.044-.006.02-.003.024-.003.044-.008.023-.003.021-.003.044-.009.023-.006.021-.006.044-.009.087-.023.041-.012.044-.014.085-.03.024-.008.02-.006.041-.018.085-.035.041-.018.123-.061.162-.091.02-.012.023-.014.041-.027.085-.058.041-.03.039-.032.082-.061.02-.018.018-.017.038-.033.076-.07.146-.149.071-.082.067-.083.018-.02.014-.021.097-.131.015-.021.044-.07.058-.091.106-.196.047-.094.043-.097.009-.023.012-.027.018-.049.038-.1.011-.023.009-.027.015-.052.035-.103.006-.026.009-.027.014-.052.027-.109.005-.026.006-.03.012-.052.006-.03.006-.026.009-.056.005-.029.003-.026.009-.056.003-.029.006-.03.006-.055.012-.117.002-.027v-.029l.006-.059v-.029l.003-.029v-.059l.003-.029v-.208l-.003-.029v-.059l-.003-.029v-.03l-.003-.032-.005-.058v-.03l-.003-.029-.006-.062-.003-.029-.006-.029-.006-.062-.006-.029-.003-.032-.009-.059-.005-.032-.006-.029-.009-.062-.026-.123-.012-.058-.015-.062-.032-.123-.009-.032-.009-.03-.017-.061-.038-.123-.009-.032-.012-.03-.02-.061-.044-.123-.117-.281-.015-.033-.029-.067-.065-.132-.017-.032-.05-.1-.073-.132-.021-.032-.017-.032-.039-.067-.082-.129-.175-.255-.021-.032-.07-.097-.1-.123-.205-.246-.026-.032-.03-.03-.055-.058-.112-.121-.24-.231-.117-.105-.12-.106-.249-.199-.032-.026-.033-.024-.064-.05-.135-.093-.275-.185-.035-.023-.035-.021-.074-.044-.146-.085-.299-.164-.041-.02-.038-.018-.076-.041-.159-.073-.325-.141-.088-.035-.09-.035-.185-.068-.044-.017-.047-.015-.094-.032-.19-.059-.094-.029-.096-.026-.197-.053-.05-.012-.046-.011-.1-.024-.202-.041-.05-.012-.05-.008-.102-.021-.05-.009-.053-.009-.102-.014-.05-.009-.053-.009-.105-.011-.05-.009-.317-.035-.055-.003-.053-.006-.105-.006-.056-.006-.106-.006-.055-.003h-.053l-.056-.003-.052-.003h-.112l-.052-.003h-.27l-.056.003h-.052l-.056.003h-.053l-.111.006-.053.003-.111.006-.056.006-.055.003-.053.006-.112.008-.334.036-.111.014-.225.035-.112.018-.111.02-.226.044-.058.012-.056.012-.114.026-.226.053-.055.015-.059.014-.111.03-.229.064-.454.146-.053.018-.052.021-.109.038-.211.079-.422.176-.211.093-.208.1-.419.211-.049.029-.053.027-.103.058-.208.117-.407.252-.803.56-.052.038-.053.041-.316.255-.414.354-.049.047-.053.047-.1.094-.199.19-.393.402-.046.049-.05.053-.281.317-.367.442-.685.943-.038.056-.115.176-.146.234-.281.483-.071.124-.064.123-.132.252-.249.515-.032.065-.029.064-.059.132-.114.267-.027.067-.029.067-.053.135-.105.275-.024.068-.026.07-.05.138-.094.281-.175.568-.041.141-.038.144-.074.284-.035.146-.035.144-.061.293-.059.293-.053.296-.012.076-.014.073-.021.152-.044.299-.017.153-.021.152-.006.076-.008.076-.015.153-.009.079-.017.228-.006.079-.006.077-.009.155-.003.076-.006.079-.003.079-.003.076-.005.159v.076l-.003.079v.079l-.003.079v.393l.003.079v.088l.006.17.002.087.003.085.006.088.003.085.006.088.006.085.012.176.005.085.006.088.009.088.015.172.009.088.011.088.018.173.07.527.103.616.052.263.074.352.082.351.091.352.046.176.05.178.103.352.231.7.117.328.126.326.267.647.035.079.038.082.071.161.152.32.322.638.082.159.088.158.176.313.375.621.823 1.216.059.082.061.079.12.161.249.32.522.627.064.076.068.076.137.155.279.302.577.592.073.073.076.073.15.144.307.287.633.554 1.348 1.046.085.061.085.059.175.12.352.237.724.457.09.053.094.056.185.108.375.211.77.404.097.05.097.047.196.097.398.184.809.349.103.044.105.041.205.079.416.158.85.287.199.065.199.061.407.117.1.03.102.026.206.056.41.105.105.024.103.023.208.05.419.088.102.023.106.021.211.038.424.076.106.017.108.018.211.032.109.018.108.014.214.03.108.011.109.015.214.027.216.023.22.02.108.012.326.027.111.008.108.006.22.015.111.006.109.006.111.005.109.003.111.006.223.006.108.003.24.006h.604l.123-.003h.12l.12-.003.123-.006.12-.003.123-.003.12-.006.123-.005.121-.006.123-.009.12-.006.246-.018.12-.008.123-.012.243-.021.123-.011.123-.015.243-.026.493-.059.123-.017.12-.018.246-.035.615-.103.123-.023.243-.044.492-.1.123-.026.124-.029.243-.056.492-.12.975-.267.457-.14.455-.147.902-.322.111-.044.115-.044.225-.088.445-.182.891-.389.111-.053.109-.053.222-.102.437-.22.87-.46 1.702-1.019.114-.077.115-.073.225-.152.446-.311.881-.647.217-.17.214-.17.428-.349.838-.723.105-.094.103-.094.202-.19.404-.384.791-.8 1.497-1.702.176-.217.173-.222.343-.446.662-.917.316-.468.314-.478.594-.979.074-.123.07-.126.144-.249.275-.506.527-1.032.065-.129.184-.395.243-.533.452-1.081.049-.129.05-.126.097-.258.19-.519.047-.129.044-.128.088-.264.173-.527.082-.264.079-.267.155-.536.279-1.081.064-.275.062-.273.117-.551.026-.137.029-.141.05-.275.1-.56.02-.14.024-.138.082-.563.038-.284.035-.281.032-.284.015-.144.015-.14.029-.285.015-.155.011-.155.015-.155.012-.156.008-.155.012-.155.009-.156.009-.158.009-.155.005-.155.009-.158.006-.156.003-.155.006-.158.003-.155.006-.317v-.155l.003-.158v-.159l-.003-.158v-.158l-.003-.155-.003-.158-.006-.159-.003-.158-.012-.316-.009-.158-.005-.159-.009-.158-.009-.161-.047-.633-.012-.161-.044-.475-.017-.161-.053-.474-.082-.639-.047-.316-.047-.32-.108-.635-.029-.162-.03-.158-.061-.316-.132-.636-.032-.149-.035-.15-.068-.296-.146-.591-.076-.293-.079-.296-.167-.589-.044-.147-.047-.146-.088-.296-.191-.583-.413-1.166-.055-.144-.053-.146-.114-.29-.235-.574-.498-1.146-.064-.141-.068-.143-.134-.281-.276-.566-.586-1.116-.304-.539-.314-.539-.656-1.061-.17-.263-.173-.261-.354-.519-.736-1.022-.094-.126-.29-.378-.392-.498-.812-.976-1.74-1.88-.123-.124-.126-.123-.249-.246-.507-.483-1.049-.94-.131-.115-.405-.343-.551-.445-1.125-.867-.287-.211-.29-.208-.586-.41-1.201-.785-.152-.097-.155-.094-.308-.187-.621-.366-1.269-.701-.152-.079-.149-.079-.302-.155-.61-.299-1.242-.574-.155-.068-.475-.202-.635-.257-1.286-.49-.165-.055-.164-.059-.325-.111-.659-.217-.164-.053-.167-.05-.331-.102-.671-.194-.167-.046-.167-.044-.337-.091-.68-.17-.339-.082-.343-.076-.686-.147-.375-.076-.372-.07-.19-.035-.188-.033-.378-.064-.187-.032-.191-.03-.378-.055-.761-.106-.191-.023-.19-.021-.384-.044-.19-.02-.194-.018-.383-.035-.194-.017-.19-.015-.387-.029-.58-.036-.193-.008-.197-.009-.193-.009-.193-.006-.197-.006-.386-.011-.197-.003-.193-.003h-.782l-.197.003-.193.003-.196.003-.589.017-.393.018-.193.008-.589.036-.199.014-.196.015-.393.032-.196.015-.197.02-.392.038-.194.021-.193.023-.387.044-.193.027-.19.023-.387.056-.193.026-.194.029-.387.062-.77.132-.193.035-.191.038-.387.073-.767.164-.193.041-.191.044-.384.091-.767.193-.381.1-.381.106-.762.222-.381.117-.378.121-.755.249-.191.064-.562.202-.75.281-1.489.604-.17.076-.172.073-.343.153-.686.316-1.353.665-.334.176-.337.179-.665.363-1.316.767-.161.1-.164.1-.322.202-.645.413-1.265.864-2.458 1.869-.161.132-.484.404-.638.554-1.246 1.143-.304.293-.305.299-.598.603-1.166 1.245-.143.158-.141.159-.281.322-.557.653-1.078 1.342-2.01 2.815-.111.17-.108.17-.22.343-.428.691-.823 1.41-.199.357-.196.357-.381.727-.727 1.474-.176.375-.17.375-.331.755-.627 1.536-.146.386-.147.39-.278.782-.521 1.588-.235.785-.219.791-.106.399-.102.398-.197.803-.047.199-.131.607-.17.811-.038.202-.039.205-.076.408-.14.82-.065.41-.058.41-.03.208-.029.205-.053.416-.026.205-.026.208-.047.416-.082.832-.036.416-.017.211-.015.208-.017.211-.012.208-.026.419-.012.211-.009.211-.012.208-.008.211-.006.211-.009.211-.006.211-.003.211-.006.228-.006.457v.689l.003.231.003.229.006.228.003.232.009.228.006.232.008.228.009.232.012.231.012.229.011.231.015.229.015.231.017.231.018.229.017.231.041.46.021.232.023.231.05.46.109.923.032.232.032.228.065.463.146.92.041.228.038.232.085.46.182.917.047.231.049.229.103.457.214.914.486 1.819.062.214.061.211.129.422.264.841.577 1.675.076.208.079.208.155.414.329.829.697 1.64.091.202.093.206.188.404.387.808.814 1.6 1.808 3.12.263.416.267.413.545.818 1.142 1.611.147.199.149.196.299.396.613.779 1.268 1.53.328.375.331.375.674.735 1.392 1.441 2.959 2.728.181.155.179.152.363.302.736.595 1.506 1.154.19.141.193.138.387.278.779.545 1.594 1.052.202.126.202.128.408.249.823.493 1.676.943.211.111.213.115.428.222.861.437 1.749.826.434.193.437.188.876.369 1.781.694.222.082.226.079.451.162.906.307 1.834.571.462.135.466.129.932.246.469.117.468.115.944.214.237.049.237.053.475.097.952.181.237.044.721.123.961.15.261.038.263.035.525.07.261.033.263.032.528.058.263.027.264.029.527.05.267.02.264.024.53.038.266.02.264.015.267.018.266.014.267.012.264.012.266.011.533.018.27.006.267.006.799.009h.536l.27-.003.267-.003.266-.006.27-.003.269-.009.267-.009.269-.008.267-.012.539-.024.267-.014.539-.035.266-.018.539-.041.267-.023.27-.024.536-.05.269-.026.27-.029.536-.062.269-.032.267-.035.539-.071 1.072-.158.249-.041.252-.041.498-.085.999-.181.498-.1.498-.103.997-.219.246-.059.249-.058.495-.121.99-.254 1.969-.566.243-.073.246-.076.489-.159.976-.325 1.933-.703.481-.187.48-.194.955-.395 1.893-.844.51-.24.507-.246 1.007-.504 1.99-1.072.492-.282.489-.284.973-.586 1.916-1.227.234-.159.238-.161.468-.322.932-.662 1.828-1.38 3.51-2.974.416-.386.41-.387.817-.791 1.591-1.629.387-.416.387-.422.758-.855 1.474-1.752.179-.226.178-.223.355-.451.697-.914 1.348-1.872 2.49-3.902.135-.235.138-.234.266-.472.525-.949 1.002-1.93.12-.247.12-.243.237-.492.46-.99.867-2.007.106-.255.102-.255.202-.51.393-1.025.375-1.031.354-1.043.088-.261.085-.264.167-.524.323-1.055.588-2.132.074-.293.073-.29.141-.586.266-1.172.065-.296.061-.296.12-.589.223-1.186.053-.299.049-.299.097-.595.047-.302.047-.298.085-.598.041-.302.041-.299.076-.603.035-.302.097-.905.029-.302.029-.305.027-.301.026-.305.024-.302.023-.305.041-.606.021-.305.014-.304.018-.305.014-.305.012-.304.012-.308.017-.609.006-.305.006-.308.006-.304.003-.308v-.612l-.003-.305-.006-.615-.006-.305-.026-.923-.015-.304-.011-.308-.015-.308-.015-.287-.052-.861-.041-.574-.047-.572-.053-.574-.056-.574-.129-1.146-.038-.287-.035-.287-.076-.571-.17-1.146-.047-.287-.047-.284-.096-.571-.211-1.143-.056-.284-.176-.853-.252-1.136-.064-.284-.068-.282-.137-.568-.293-1.128-.076-.281-.238-.844-.331-1.122-.726-2.23-.094-.272-.097-.269-.193-.542-.404-1.082-.868-2.141-.111-.267-.117-.263-.232-.531-.48-1.054-1.017-2.089-.131-.258-.405-.773-.556-1.026-1.163-2.021-2.546-3.935-.182-.264-.185-.257-.372-.519-.758-1.028-1.58-2.013-.202-.249-.205-.246-.413-.492-.838-.973-1.734-1.901-.223-.235-.225-.231-.449-.463-.914-.911-1.883-1.776-3.976-3.348-.24-.185-.241-.187-.486-.366-.978-.724-2.001-1.4-.255-.17-.255-.167-.51-.337-1.034-.657-2.104-1.259-.266-.156-.27-.149-.536-.302-1.081-.586-2.2-1.116-.275-.135-.282-.132-.556-.263-1.128-.513-2.283-.964-.322-.129-.967-.378-1.303-.48-.657-.229-.656-.225-1.324-.431-.331-.102-.334-.103-.668-.199-1.342-.381-.34-.091-.337-.088-.676-.175-1.36-.329-.685-.152-.686-.146-1.374-.276-.346-.067-.345-.062-.692-.12-1.391-.223-.349-.052-.348-.05-.698-.094-.351-.044-.349-.044-.7-.079-.352-.038-.351-.035-.703-.067-.355-.033-.351-.029-.352-.026-.355-.027" stroke-width="8.1" stroke="#0051CB" fill="none" />
  <path d="M206.604 190.433h-.102l-.018.003h-.035l-.017.002h-.036l-.035.006-.035.003h-.014l-.053.009h-.018l-.053.009-.014.003-.053.009-.067.014-.018.003-.017.006-.036.006-.067.017-.015.006-.017.006-.035.009-.068.02-.014.006-.018.006-.032.012-.068.026-.128.056-.018.009-.018.006-.105.052-.015.009-.017.009-.036.02-.067.038-.017.012-.015.009-.035.02-.065.044-.129.094-.029.024-.032.023-.062.053-.117.108-.015.015-.014.012-.029.029-.056.058-.111.124-.024.029-.023.032-.05.062-.091.126-.012.017-.008.015-.024.032-.041.067-.082.141-.018.035-.02.035-.035.074-.018.035-.017.038-.033.076-.017.038-.015.038-.032.076-.056.159-.011.041-.012.038-.035.123-.009.041-.021.082-.003.02-.005.021-.009.041-.003.02-.006.021-.009.044-.006.041-.008.044-.012.085-.003.023-.003.021-.006.044v.02l-.003.023-.006.044v.021l-.003.023-.002.021v.023l-.003.024v.02l-.003.024v.044l-.003.023v.067l-.003.021v.161l.003.024v.07l.003.023v.027l.003.023v.026l.003.024.002.053.003.023.003.026.003.05.003.027.003.023.009.079.003.024.009.052.003.024.005.026.006.053.006.023.006.027.009.052.02.103.012.053.012.049.032.129.009.027.014.052.03.103.017.053.015.052.038.103.079.208.009.026.009.024.02.047.044.096.091.194.012.023.011.027.027.046.05.097.108.191.117.187.126.185.278.366.021.023.02.027.041.046.083.097.175.188.024.023.02.024.047.046.094.091.193.179.027.023.023.021.053.044.102.088.214.167.454.316.03.021.029.017.058.038.118.071.246.14.032.018.029.014.065.036.126.064.26.123.036.015.032.014.067.03.135.055.275.109.036.011.035.015.07.024.144.049.29.088.032.012.105.026.138.038.07.018.071.015.14.032.035.009.038.008.071.015.143.026.038.006.036.009.219.035.038.006.036.003.076.012.035.006.038.003.073.008.038.006.038.003.077.009.038.003.035.003.076.009.19.014h.038l.08.006h.038l.076.006h.038l.038.003h.079l.038.003h.34l.044-.003h.085l.041-.003h.044l.044-.003h.041l.132-.009.041-.003.132-.008.084-.006.044-.003.044-.006.264-.026.176-.024.176-.026.044-.006.044-.009.087-.015.179-.032.176-.035.179-.038.357-.088.041-.009.041-.011.085-.024.167-.047.334-.105.082-.03.085-.029.164-.058.334-.129.041-.015.044-.018.082-.035.167-.07.331-.152.653-.34.041-.021.041-.023.08-.044.158-.094.316-.196.038-.024.038-.026.079-.05.156-.105.307-.217.041-.029.038-.027.077-.058.149-.115.302-.24.586-.512.038-.036.038-.038.079-.073.152-.149.302-.311.038-.038.038-.041.073-.079.147-.164.284-.334.035-.041.035-.044.071-.085.137-.176.27-.36.51-.75.029-.047.029-.044.056-.094.111-.184.214-.375.027-.047.026-.05.053-.094.099-.196.197-.393.023-.052.07-.15.091-.202.176-.413.041-.105.041-.103.079-.214.152-.428.021-.058.017-.059.042-.117.073-.237.017-.062.018-.058.035-.121.067-.243.015-.061.018-.059.029-.123.061-.246.109-.498.012-.064.011-.062.024-.126.047-.255.008-.061.012-.065.021-.129.035-.255.009-.064.008-.067.015-.129.009-.065.006-.064.014-.129.009-.068.006-.064.012-.132.006-.064.002-.068.012-.132.003-.064.006-.064.003-.065.006-.064.003-.065.003-.067.008-.194v-.067l.006-.129v-.067l.003-.065v-.53l-.003-.064v-.068l-.003-.067v-.065l-.005-.134-.003-.065-.012-.269-.003-.065-.009-.135-.012-.134-.008-.135-.012-.135-.044-.404-.006-.068-.026-.202-.038-.269-.009-.068-.012-.07-.02-.135-.047-.269-.024-.129-.023-.126-.05-.255-.015-.062-.011-.064-.03-.126-.058-.255-.015-.061-.014-.065-.033-.126-.067-.255-.144-.506-.02-.065-.018-.061-.041-.126-.082-.255-.173-.504-.023-.062-.023-.064-.047-.126-.1-.252-.205-.498-.059-.135-.058-.138-.126-.266-.258-.536-.035-.068-.032-.067-.071-.132-.14-.267-.299-.524-.038-.064-.038-.068-.079-.129-.159-.26-.334-.513-.72-1.005-.044-.059-.044-.055-.091-.118-.182-.225-.378-.451-.797-.876-.052-.053-.05-.056-.319-.316-.434-.416-.917-.797-.064-.053-.062-.052-.132-.103-.261-.205-.536-.401-.134-.1-.138-.097-.278-.19-.566-.372-.07-.044-.073-.047-.144-.088-.293-.176-.595-.34-1.233-.632-.079-.035-.076-.036-.156-.073-.313-.141-.639-.266-.079-.029-.082-.033-.161-.064-.325-.12-.659-.232-.082-.026-.085-.029-.167-.053-.337-.103-.085-.026-.085-.023-.17-.05-.425-.117-.088-.021-.17-.044-.348-.085-.698-.152-.082-.018-.082-.014-.164-.033-.331-.061-.085-.015-.082-.011-.167-.03-.334-.05-.082-.011-.085-.012-.167-.023-.085-.012-.085-.009-.167-.02-.085-.009-.085-.012-.17-.018-.339-.032-.085-.006-.085-.008-.173-.012-.17-.012-.173-.012-.085-.005-.085-.003-.088-.006-.085-.003-.085-.006-.088-.003-.085-.003-.087-.003-.085-.003-.088-.003h-.085l-.088-.003h-.085l-.088-.003h-.521l-.088.003h-.088l-.085.003h-.088l-.094.003-.097.003-.093.003-.097.003-.094.006-.093.003-.191.009-.097.005-.093.006-.191.012-.096.009-.094.006-.191.017-.096.006-.097.009-.19.02-.094.009-.097.009-.19.023-.097.012-.097.009-.19.026-.384.053-.097.015-.093.014-.194.03-.383.064-.094.018-.097.017-.193.038-.381.077-.193.041-.191.041-.384.09-.764.197-.091.023-.088.026-.179.05-.354.106-.712.225-.088.033-.088.029-.176.061-.354.126-.703.27-.176.07-.173.071-.349.149-.694.31-1.368.686-.085.044-.082.047-.167.091-.328.184-.653.387-1.287.835-.079.053-.079.055-.155.112-.314.225-.621.466-1.207.987-.079.068-.079.07-.161.141-.316.287-.622.589-.152.152-.152.149-.302.308-.592.633-.073.079-.073.082-.144.161-.284.328-.56.674-1.063 1.4-.234.34-.235.343-.454.694-.053.088-.055.088-.112.179-.213.357-.419.727-.05.094-.05.09-.1.185-.199.372-.378.756-.7 1.553-.044.105-.044.109-.088.213-.17.434-.319.876-.076.223-.076.219-.144.449-.269.902-.033.111-.032.115-.061.228-.121.46-.026.114-.029.115-.056.231-.105.466-.024.114-.026.117-.047.235-.091.468-.023.118-.021.117-.041.237-.079.475-.017.117-.018.114-.035.234-.015.118-.017.117-.03.234-.014.12-.015.118-.026.234-.05.475-.012.117-.012.12-.017.237-.012.117-.009.12-.017.238-.006.12-.009.12-.018.36-.005.118-.012.24-.015.6-.003.123-.003.12v.724l.003.12.003.123v.12l.003.121.006.123.006.24.006.123.006.12.011.243.006.123.006.12.015.243.008.124.009.12.018.246.012.111.008.114.021.229.012.114.011.111.035.343.015.114.026.226.074.571.017.115.033.225.073.457.161.908.047.229.044.228.099.455.214.905.029.114.027.114.184.677.264.902.038.121.041.123.076.243.164.486.346.967.188.48.19.478.41.952.053.12.053.117.108.238.223.468.468.935 1.023 1.837.064.105.062.106.129.211.264.419.541.829 1.161 1.617.152.199.155.199.311.393.641.776 1.354 1.503.085.091.088.088.173.179.351.354.718.697 1.5 1.342.097.079.096.082.197.162.392.319.803.624 1.661 1.186.114.077.118.076.231.155.469.302.952.583.123.07.12.07.243.141.489.275.994.531.252.129.252.126.509.246 1.032.474 2.112.862.252.093.252.091.507.179 1.019.334.129.038.129.041.258.076.518.153 1.046.278.132.035.129.032.267.062.527.123.135.029.131.029.267.059.533.108.135.024.135.026.266.05.674.117.138.021.269.044.542.079.15.02.146.018.296.038.15.017.146.018.299.035.146.015.748.073.597.047.15.009.149.011.149.009.153.009.299.015.149.008.152.006.15.006.152.006.15.003.152.006.149.003.153.003.149.003.152.003h.15l.152.003h.302l.152-.003h.153l.304-.006.15-.003.304-.006.61-.024.149-.005.305-.018.152-.006.153-.012.304-.02.153-.009.152-.012.305-.026.152-.012.152-.014.308-.03.141-.014.143-.015.284-.032.569-.067.143-.021.144-.018.284-.041.568-.085.144-.02.14-.023.288-.047.568-.103 1.134-.225.143-.033.141-.029.284-.064.566-.132 1.13-.293.282-.076.281-.08.559-.167 1.12-.354.137-.047.135-.047.273-.094.544-.193 1.084-.41.135-.053.135-.055.267-.109.536-.222 1.066-.472.132-.062.135-.061.263-.126.528-.255 1.043-.53 2.053-1.155.138-.082.138-.085.275-.167.542-.339 1.075-.712.135-.091.132-.091.267-.185.524-.375 1.04-.776.258-.199.255-.202.507-.41.996-.841 1.93-1.779.217-.216.22-.217.43-.44.847-.899 1.623-1.872.097-.12.1-.123.193-.243.387-.49.75-.996 1.426-2.065.094-.144.091-.143.182-.29.36-.581.697-1.18.085-.15.082-.149.167-.302.328-.606.627-1.228.153-.31.149-.311.29-.63.56-1.271.064-.161.067-.159.132-.322.255-.65.484-1.31.058-.161.056-.164.111-.325.214-.653.401-1.322.188-.668.176-.668.325-1.35.076-.34.073-.34.138-.683.032-.172.032-.17.065-.346.12-.689.026-.172.03-.173.052-.346.1-.694.023-.173.021-.176.044-.349.079-.697.018-.164.014-.164.032-.325.03-.328.026-.328.024-.329.023-.331.012-.164.008-.164.018-.331.009-.164.006-.164.008-.167.012-.328.006-.167.003-.164.006-.167.003-.164.003-.167.003-.164.003-.167v-.996l-.003-.167-.003-.164-.006-.334-.006-.167-.003-.164-.012-.334-.008-.167-.006-.167-.009-.167-.006-.164-.02-.334-.009-.167-.012-.167-.02-.334-.015-.167-.012-.167-.026-.334-.015-.167-.017-.164-.03-.334-.073-.668-.041-.364-.044-.36-.1-.724-.026-.181-.026-.179-.056-.363-.12-.721-.029-.182-.033-.178-.067-.361-.141-.72-.316-1.439-.041-.178-.044-.179-.088-.361-.184-.714-.402-1.424-.053-.179-.055-.176-.109-.354-.228-.709-.489-1.406-.059-.164-.059-.162-.123-.328-.252-.65-.53-1.292-.14-.322-.141-.32-.287-.641-.607-1.269-.076-.155-.079-.158-.483-.941-.68-1.239-1.459-2.435-.097-.146-.093-.147-.191-.29-.387-.583-.802-1.148-1.699-2.238-.112-.138-.111-.135-.223-.272-.454-.542-.929-1.067-1.951-2.065-.137-.135-.138-.138-.276-.269-.559-.536-1.143-1.049-.143-.129-.147-.129-.293-.255-.592-.507-1.209-.984-.153-.12-.155-.123-.308-.237-.624-.472-1.271-.92-2.631-1.731-.158-.094-.158-.097-.317-.19-.636-.375-1.289-.724-.164-.088-.161-.088-.328-.173-.659-.342-1.336-.657-.334-.158-.34-.155-.68-.308-1.374-.586-.173-.07-.175-.07-.346-.138-.7-.27-1.412-.512-.797-.27-.8-.258-.199-.061-.607-.185-.808-.231-.205-.059-.202-.055-.411-.109-.817-.211-1.652-.381-.416-.087-.416-.085-.835-.162-.208-.038-.211-.038-.419-.07-.841-.135-.422-.064-.425-.059-.422-.058-.424-.053-.214-.024-.211-.026-.428-.047-.211-.02-.214-.024-.428-.041" stroke-width="8.1" stroke="#0051CB" fill="none" />
  <path d="M206.604 77.221h-.043l-.024.003h-.067l-.021.003h-.023l-.021.002-.023.003h-.024l-.02.003-.024.003-.02.003-.044.006-.047.006-.044.006-.02.006-.024.003-.044.008-.02.006-.024.006-.044.009-.085.023-.023.006-.021.006-.043.015-.085.029-.021.006-.023.009-.041.017-.085.035-.041.018-.123.061-.162.091-.02.012-.021.015-.043.026-.124.088-.041.032-.079.062-.041.035-.038.032-.076.07-.146.15-.036.041-.035.038-.067.082-.015.023-.017.021-.033.041-.061.091-.018.02-.014.024-.03.044-.055.093-.109.197-.023.046-.021.047-.044.097-.011.023-.009.027-.021.047-.038.102-.008.024-.027.079-.032.102-.009.027-.006.026-.014.053-.027.108-.008.027-.006.026-.012.056-.003.029-.006.026-.012.056-.003.029-.005.027-.009.055-.006.059-.009.056-.009.087-.003.027v.029l-.005.059v.029l-.003.029v.03l-.003.029v.058l-.003.03v.149l.003.029v.059l.003.029v.03l.003.029v.029l.003.032.008.088.006.062.006.058.009.062.006.059.011.061.003.032.006.03.012.061.023.12.006.033.009.029.044.184.009.033.009.029.017.061.038.123.012.033.009.029.02.062.047.123.1.246.014.035.015.032.029.067.065.132.017.032.018.036.035.064.073.132.018.032.02.032.038.065.08.132.175.255.047.064.047.062.097.126.208.246.026.029.027.032.055.059.114.12.238.231.117.106.12.105.249.199.032.027.033.023.067.05.132.094.278.184.035.021.035.023.071.044.146.085.302.164.038.021.038.017.079.038.155.077.326.14.044.018.046.017.088.036.185.067.047.015.047.017.093.032.235.074.05.014.096.027.194.049.049.015.15.035.199.041.05.012.05.009.102.017.053.012.05.009.102.015.053.008.05.006.105.015.053.009.264.029.052.003.053.006.053.003.053.005.055.003.106.006.055.003.053.003.056.003.053.003h.055l.053.003h.056l.052.003h.217l.053-.003h.108l.112-.006h.052l.112-.006.052-.003.056-.003.056-.006.055-.002.056-.006.111-.009.053-.006.279-.029.114-.018.222-.032.112-.018.114-.02.226-.044.111-.024.114-.026.226-.053.058-.014.056-.015.114-.029.226-.068.457-.143.053-.021.052-.017.106-.038.211-.079.422-.176.211-.094.211-.1.416-.211.052-.029.05-.029.106-.056.205-.12.41-.249.8-.559.052-.041.053-.039.316-.254.414-.355.052-.047.05-.047.103-.093.199-.191.389-.401.05-.05.047-.053.097-.105.187-.211.364-.443.685-.943.038-.056.115-.175.146-.235.284-.483.032-.062.036-.061.067-.126.132-.249.249-.516.029-.064.029-.068.059-.132.114-.266.03-.065.026-.067.053-.138.105-.272.026-.067.024-.071.05-.137.096-.282.176-.568.018-.07.02-.071.038-.143.074-.287.017-.071.018-.073.035-.143.064-.293.03-.147.026-.146.056-.299.011-.074.012-.076.024-.149.041-.302.011-.073.035-.305.006-.076.018-.152.006-.079.017-.229.006-.079.006-.076.009-.155.006-.08.003-.076.003-.079.003-.076.005-.158.003-.076v-.079l.003-.08v-.471l-.003-.079v-.088l-.006-.17-.002-.088-.003-.085-.003-.088-.006-.085-.003-.088-.006-.085-.012-.176-.009-.084-.005-.088-.009-.088-.015-.173-.017-.176-.021-.173-.012-.088-.008-.088-.024-.175-.014-.088-.012-.088-.027-.176-.061-.351-.015-.088-.052-.264-.074-.352-.082-.351-.088-.355-.047-.175-.049-.176-.106-.352-.228-.7-.059-.164-.061-.164-.123-.325-.27-.648-.035-.082-.035-.079-.074-.161-.152-.322-.319-.636-.044-.079-.041-.079-.085-.158-.179-.314-.372-.624-.826-1.213-.059-.082-.061-.082-.12-.158-.249-.319-.519-.627-.135-.153-.137-.155-.276-.302-.58-.594-.073-.071-.073-.073-.457-.431-.633-.553-1.348-1.046-.088-.062-.085-.058-.173-.123-.354-.235-.721-.457-.093-.055-.091-.053-.188-.109-.375-.213-.767-.405-.1-.047-.097-.049-.196-.094-.398-.185-.809-.348-.103-.044-.102-.041-.624-.238-.847-.29-.099-.029-.103-.032-.199-.062-.404-.117-.206-.059-.615-.158-.102-.023-.106-.027-.208-.046-.416-.088-.105-.024-.317-.061-.424-.074-.211-.035-.214-.032-.109-.017-.105-.015-.217-.029-.105-.015-.109-.012-.217-.026-.216-.024-.217-.02-.109-.012-.111-.009-.325-.026-.111-.006-.22-.015-.109-.005-.111-.006-.108-.006-.112-.006-.111-.003-.108-.003-.223-.006-.24-.006h-.12l-.12-.002h-.121l-.123.002h-.24l-.123.003-.24.006-.123.006-.12.003-.123.006-.12.006-.124.006-.12.008-.123.006-.123.009-.12.009-.123.009-.123.011-.243.021-.123.012-.12.011-.246.027-.49.061-.492.071-.489.079-.123.023-.123.021-.246.046-.492.1-.121.026-.123.03-.246.055-.489.12-.978.267-.229.07-.226.071-.454.146-.905.322-.111.044-.115.041-.222.088-.448.185-.891.39-.108.052-.112.05-.22.106-.439.216-.87.46-1.702 1.023-.114.076-.112.073-.225.153-.449.307-.879.651-.111.084-.105.083-.217.172-.428.349-.838.724-.41.375-.404.386-.788.8-1.497 1.702-.176.217-.176.22-.34.448-.662.917-.082.117-.237.352-.311.477-.597.979-.074.123-.07.123-.141.252-.278.504-.527 1.034-.062.129-.064.132-.123.263-.241.534-.454 1.081-.049.126-.05.129-.097.257-.19.516-.044.132-.047.129-.088.263-.173.525-.041.135-.041.131-.079.267-.152.533-.282 1.084-.032.138-.032.135-.062.275-.117.551-.053.275-.052.279-.097.559-.023.138-.024.14-.082.563-.038.284-.035.281-.032.285-.015.14-.015.144-.029.284-.012.155-.014.155-.047.622-.018.31-.009.158-.011.311-.006.158-.006.155-.006.159-.003.155-.006.316v.63l.003.155.009.475.006.158.003.158.009.159.006.158.026.474.009.162.035.474.014.158.012.161.032.317.015.158.018.161.035.317.082.638.047.317.05.319.105.636.029.161.03.158.061.317.132.635.032.15.035.146.068.296.146.592.038.149.038.147.082.296.167.589.088.293.091.292.191.586.41 1.166.055.144.056.146.111.288.235.577.498 1.142.067.144.065.14.134.285.279.562.586 1.116.073.138.228.404.314.539.656 1.061.085.132.085.129.173.263.354.519.736 1.022.096.126.094.126.194.252.392.495.815.979 1.74 1.881.246.246.249.246.51.483 1.046.941.134.114.132.114.273.229.547.445 1.125.867.144.106.147.105.29.208.585.41 1.202.786.152.096.152.094.308.188.621.366 1.272.7.298.158.305.155.609.299 1.24.572.158.07.155.067.317.135.635.258 1.289.489.162.056.164.058.328.112.656.216.167.053.164.05.334.103.668.193.167.047.17.044.337.091.677.169.169.041.17.039.343.079.686.146.375.076.562.106.188.032.378.064.187.03.191.032.378.056.761.102.381.047.384.044.193.021.191.017.383.035.194.018.58.044.58.035.58.026.196.006.387.012.196.006.194.003.196.003h.779l.393-.006.193-.003.589-.018.589-.026.589-.035.392-.03.393-.032.393-.035.392-.038.193-.021.194-.023.387-.044.193-.026.193-.024.577-.082.194-.029.387-.062.77-.131.193-.036.194-.038.384-.076.77-.161.19-.044.194-.041.384-.091.764-.193.191-.05.193-.05.381-.105.762-.223.19-.058.188-.059.38-.12.756-.249.188-.068.187-.064.378-.135.747-.281 1.489-.604.172-.076.17-.073.346-.152.683-.317 1.353-.668.17-.085.167-.088.334-.178.665-.364 1.316-.767.161-.1.164-.099.322-.202.645-.414 1.268-.864 2.455-1.869.164-.132.161-.135.323-.272.635-.551 1.245-1.142.156-.147.152-.146.302-.299.598-.604 1.166-1.245.143-.158.141-.161.284-.319.554-.654 1.078-1.342 2.009-2.815.223-.34.217-.343.431-.691.823-1.409.099-.179.097-.179.196-.36.381-.724.727-1.473.176-.375.17-.375.334-.756.624-1.535.073-.194.076-.193.144-.39.281-.782.518-1.588.059-.196.061-.196.115-.393.222-.791.106-.398.102-.399.194-.803.047-.202.044-.199.09-.404.167-.812.038-.202.041-.205.074-.407.14-.821.065-.41.061-.413.03-.205.026-.205.056-.416.026-.205.094-.832.02-.208.038-.416.021-.208.017-.211.015-.208.018-.208.014-.211.015-.208.023-.419.024-.422.009-.211.008-.208.009-.211.018-.632.009-.686v-.689l-.003-.231-.003-.228-.003-.232-.012-.457-.018-.463-.008-.228-.012-.232-.012-.228-.011-.232-.015-.231-.015-.229-.035-.463-.017-.228-.039-.463-.023-.229-.023-.231-.047-.46-.112-.923-.032-.231-.029-.232-.068-.46-.146-.92-.038-.231-.041-.229-.085-.459-.179-.917-.05-.232-.149-.685-.217-.915-.486-1.822-.123-.422-.126-.422-.267-.84-.577-1.676-.152-.416-.158-.413-.329-.829-.697-1.641-.091-.202-.091-.205-.187-.405-.387-.808-.817-1.6-1.808-3.123-.132-.205-.131-.208-.267-.413-.545-.817-1.143-1.612-.146-.199-.149-.196-.299-.396-.613-.779-1.268-1.529-.164-.191-.164-.187-.331-.372-.674-.736-1.392-1.441-2.959-2.73-.178-.153-.182-.152-.363-.302-.736-.595-1.506-1.154-.19-.141-.19-.137-.387-.279-.782-.545-1.594-1.051-.202-.129-.202-.126-.408-.249-.823-.492-1.676-.944-.211-.114-.641-.334-.861-.436-1.75-.827-.433-.193-.434-.188-.879-.369-1.778-.694-.451-.164-.448-.158-.909-.311-1.834-.568-.462-.135-.463-.129-.935-.246-.231-.059-.235-.058-.471-.114-.944-.214-.234-.053-.237-.05-.475-.096-.955-.182-.237-.044-.241-.041-.477-.082-.964-.15-.261-.038-.261-.035-.524-.07-.527-.065-.525-.058-.263-.029-.267-.027-.527-.05-.264-.023-.267-.021-.53-.041-.264-.017-.266-.015-.267-.017-.263-.015-.8-.035-.533-.018-.534-.011-.269-.003-.533-.006h-.537l-.266.003-.27.003-.266.003-.27.005-.266.009-.27.009-.267.009-.539.023-.266.012-.27.015-.269.017-.267.018-.269.017-.536.041-.27.021-.27.023-.536.053-.269.026-.267.03-.539.061-.266.032-.27.033-.536.073-1.075.158-.249.038-.249.041-.501.085-.999.185-.498.099-.498.103-.994.22-.498.117-.495.12-.987.255-1.969.562-.492.153-.489.158-.973.325-1.936.703-.481.188-.48.193-.956.396-1.892.843-.51.241-.507.246-1.005.504-1.992 1.072-.492.281-.489.284-.973.586-1.913 1.228-.237.158-.238.161-.468.322-.932.662-1.828 1.38-3.507 2.974-.208.193-.208.191-.413.389-.817.791-1.588 1.629-.197.208-.193.208-.384.422-.761.856-1.471 1.752-.182.225-.178.223-.355.451-.697.914-1.348 1.872-2.487 3.902-.138.235-.135.234-.269.472-.525.949-1.002 1.931-.12.246-.12.243-.234.492-.46.99-.87 2.007-.103.255-.102.252-.205.51-.39 1.025-.097.258-.093.261-.185.515-.357 1.043-.088.261-.085.261-.167.527-.32 1.055-.589 2.133-.076.293-.07.29-.144.586-.266 1.172-.062.295-.064.293-.117.592-.226 1.187-.05.299-.052.298-.097.595-.047.299-.047.302-.085.597-.041.302-.041.299-.073.604-.07.603-.065.604-.029.301-.029.305-.053.604-.047.609-.041.606-.035.61-.044.914-.009.304-.012.308-.009.305-.005.304-.006.308-.003.305-.003.307-.003.305v.308l.003.304.003.308.006.308.006.304.005.308.009.308.012.307.012.305.011.307.015.308.018.287.014.287.018.287.02.287.018.285.094 1.148.026.287.059.574.129 1.146.07.574.079.571.17 1.146.044.287.047.284.099.572.208 1.142.059.284.056.284.117.569.252 1.137.067.284.067.281.138.568.29 1.128.076.282.238.843.334 1.122.723 2.23.094.272.097.27.196.542.401 1.081.868 2.141.114.267.114.264.232.53.48 1.055 1.017 2.089.134.257.132.258.27.516.556 1.025 1.163 2.022 2.546 3.934.182.261.185.261.372.518.758 1.029 1.582 2.012.203.249.615.739.841.972 1.734 1.902.223.234.222.231.452.463.914.911 1.88 1.776 3.976 3.349.24.184.243.185.484.369.981.723 1.998 1.398.51.34.513.334 1.034.659 2.103 1.26.534.304.536.299 1.084.586 2.197 1.119.278.135.279.132.559.264 1.125.509 2.282.967.323.129.322.126.647.249 1.301.48.328.118.329.114.656.226 1.324.43.334.103.331.102.668.199 1.345.381.337.091.337.088.676.173 1.363.328.339.079.343.076.686.147 1.377.275.345.065.343.064.695.12 1.388.223.697.099.701.097.348.044.349.041.703.082.352.038.351.035.703.068.352.032.351.029.355.027.351.026" stroke-width="8.1" stroke="#0051CB" fill="none" />
  <path d="M206.604 77.221h.106l.018-.003h.032l.017-.003h.018l.017-.003h.018l.018-.003.035-.003.017-.003h.018l.032-.006.018-.003h.017l.071-.011.032-.006.07-.015.018-.003.014-.006.036-.008.067-.018.018-.003.017-.006.032-.009.068-.023.017-.006.015-.003.035-.014.065-.024.131-.056.036-.017.032-.015.105-.053.032-.02.068-.038.017-.012.018-.009.032-.02.065-.044.129-.094.014-.012.018-.011.029-.027.062-.049.12-.109.029-.029.029-.027.056-.058.108-.123.012-.015.012-.017.026-.03.047-.061.091-.126.012-.018.011-.014.021-.036.044-.064.079-.141.009-.017.011-.018.018-.035.035-.073.018-.035.052-.115.009-.017.006-.021.018-.038.029-.076.056-.158.011-.041.012-.038.035-.123.009-.041.021-.082.005-.021.003-.02.009-.041.006-.021.003-.023.009-.041.003-.021.003-.023.008-.041.012-.085.003-.024.003-.02.006-.044.003-.024.003-.02.003-.044.003-.024v-.02l.002-.023v-.021l.003-.023v-.021l.003-.023v-.024l.003-.02v-.044l.003-.024v-.228l-.003-.024v-.07l-.003-.026v-.024l-.003-.026v-.026l-.005-.05v-.024l-.003-.026-.006-.05-.006-.053-.006-.049-.003-.027-.003-.023-.009-.053-.003-.026-.002-.024-.009-.053-.006-.026-.003-.023-.012-.053-.02-.103-.012-.052-.012-.05-.026-.106-.006-.026-.006-.023-.014-.053-.033-.106-.008-.023-.006-.026-.053-.159-.079-.208-.012-.023-.009-.023-.02-.05-.041-.097-.094-.19-.012-.027-.035-.07-.053-.097-.108-.19-.015-.024-.011-.023-.03-.047-.061-.094-.126-.187-.278-.363-.018-.024-.021-.026-.041-.047-.085-.097-.172-.187-.094-.094-.094-.091-.193-.179-.024-.023-.026-.021-.05-.044-.102-.087-.214-.167-.454-.32-.059-.035-.059-.038-.12-.07-.246-.141-.029-.017-.032-.015-.062-.035-.129-.065-.26-.123-.033-.014-.035-.015-.064-.029-.135-.059-.278-.105-.036-.015-.105-.035-.141-.05-.29-.088-.035-.012-.035-.008-.067-.018-.141-.038-.141-.035-.14-.032-.035-.006-.036-.009-.073-.015-.143-.026-.035-.009-.039-.006-.219-.035-.035-.006-.039-.006-.073-.008-.038-.006-.038-.003-.073-.009-.038-.006-.038-.003-.074-.009-.038-.003-.038-.005-.266-.021h-.038l-.115-.009h-.038l-.041-.003h-.038l-.038-.003h-.079l-.038-.003h-.381l-.044.003h-.041l-.044.003h-.044l-.041.003h-.044l-.088.006-.041.003h-.044l-.088.006-.041.006-.131.009-.044.005-.088.009-.173.018-.176.023-.176.027-.047.005-.044.009-.087.015-.176.032-.044.006-.047.009-.088.02-.179.038-.354.088-.044.009-.123.035-.167.047-.334.106-.085.029-.082.026-.167.062-.334.126-.082.035-.085.035-.164.07-.331.153-.656.337-.041.023-.039.023-.082.044-.158.094-.313.194-.041.026-.038.026-.079.05-.156.106-.307.216-.038.027-.038.029-.077.056-.152.117-.302.24-.583.513-.041.035-.038.038-.076.073-.155.15-.302.31-.038.038-.035.041-.074.079-.146.164-.287.334-.035.041-.035.044-.071.085-.137.176-.27.358-.51.753-.029.046-.026.044-.059.091-.111.185-.214.378-.027.047-.026.049-.05.094-.102.196-.197.393-.046.1-.047.102-.091.202-.173.413-.021.053-.02.05-.044.105-.079.211-.152.431-.018.059-.021.058-.038.117-.076.238-.017.061-.018.059-.035.12-.065.243-.017.059-.015.061-.032.123-.059.246-.108.498-.015.062-.011.064-.024.126-.044.252-.011.065-.009.064-.021.129-.038.255-.017.129-.015.132-.009.064-.006.065-.014.129-.006.067-.006.064-.012.132-.012.129-.011.132-.003.064-.006.068-.012.258-.003.067-.006.129-.002.067-.003.065v.064l-.003.068v.064l-.003.067v.396l.003.064v.135l.003.065v.067l.005.135.003.064.009.202.003.065.006.067.009.135.003.067.029.337.012.132.029.272.009.068.006.067.017.135.038.27.012.067.009.067.02.138.047.27.024.128.023.126.053.252.012.065.014.064.027.126.058.255.018.062.014.064.033.126.064.255.144.507.02.061.021.065.038.126.082.255.176.504.023.061.023.065.047.126.097.249.205.501.059.134.184.405.261.536.032.067.035.067.068.132.143.264.296.527.076.129.079.132.162.258.331.516.72 1.004.044.059.047.056.088.114.182.228.378.452.796.876.053.052.053.056.102.105.214.211.437.413.914.8.129.106.129.102.261.205.536.402.067.05.067.046.138.1.278.19.566.373.073.043.07.047.147.088.29.176.598.34 1.23.63.079.038.076.035.159.073.313.138.636.267.079.032.082.032.161.064.325.121.659.231.085.026.082.03.167.052.337.103.085.026.085.024.17.05.34.093.088.024.085.02.173.044.345.085.698.152.082.018.085.015.164.032.331.061.082.012.082.015.167.029.334.05.085.012.082.011.17.024.082.009.085.011.17.021.17.017.167.021.339.032.088.006.085.009.34.023.173.012.085.006.088.003.085.006.085.002.088.006.085.003.087.003.085.003.088.003.085.003h.088l.085.003h.088l.085.003h.521l.088-.003h.088l.088-.003h.085l.097-.003.187-.006.097-.003.094-.006.096-.003.191-.011.094-.003.096-.006.191-.015.093-.006.097-.005.191-.018.093-.006.097-.009.19-.02.097-.009.094-.012.193-.02.094-.012.097-.012.19-.023.384-.053.193-.029.191-.029.383-.065.097-.017.094-.018.193-.038.384-.076.094-.021.29-.061.381-.091.764-.196.091-.024.088-.026.179-.05.357-.105.709-.229.176-.059.179-.061.351-.126.703-.27.176-.07.176-.073.348-.147.692-.31 1.371-.686.082-.047.082-.044.167-.09.328-.185.656-.387 1.284-.835.079-.052.237-.167.313-.226.619-.466 1.207-.987.079-.07.082-.068.158-.143.316-.284.622-.589.079-.076.228-.229.302-.308.589-.63.073-.079.073-.082.144-.161.287-.328.557-.674 1.063-1.4.059-.085.061-.085.117-.17.232-.343.454-.694.056-.088.055-.091.109-.176.216-.357.416-.727.05-.093.053-.091.1-.185.196-.372.381-.756.697-1.552.047-.106.044-.108.085-.214.17-.434.322-.876.076-.222.073-.22.147-.448.269-.903.033-.114.029-.111.061-.229.121-.46.029-.114.026-.114.056-.232.105-.465.027-.115.023-.117.05-.234.091-.469.02-.117.024-.12.041-.235.076-.474.035-.235.035-.231.018-.117.014-.118.03-.237.058-.469.047-.474.012-.117.012-.12.02-.238.009-.12.009-.117.017-.24.009-.118.012-.24.009-.12.011-.24.003-.117.006-.12.003-.121.006-.12.003-.12.003-.123.003-.12v-.12l.003-.12v-.24l.003-.121v-.123l-.003-.12v-.12l-.003-.12v-.123l-.006-.24-.003-.123-.003-.12-.006-.123-.003-.121-.006-.123-.011-.24-.006-.123-.009-.12-.015-.243-.017-.246-.018-.243-.009-.112-.011-.114-.021-.228-.012-.115-.008-.114-.027-.226-.023-.228-.029-.229-.059-.454-.015-.114-.017-.114-.033-.226-.07-.457-.164-.911-.023-.111-.021-.115-.047-.228-.096-.454-.214-.908-.03-.112-.029-.114-.058-.226-.124-.451-.266-.902-.038-.12-.038-.123-.079-.243-.162-.487-.348-.967-.047-.12-.044-.12-.094-.24-.193-.478-.407-.955-.053-.117-.056-.117-.108-.237-.223-.472-.466-.932-1.025-1.837-.061-.105-.194-.316-.264-.419-.542-.829-1.16-1.621-.076-.099-.076-.097-.152-.199-.314-.393-.641-.776-1.351-1.503-.088-.091-.085-.088-.173-.178-.351-.358-.721-.694-1.5-1.342-.097-.079-.096-.082-.197-.161-.392-.32-.8-.624-1.661-1.186-.117-.076-.115-.079-.234-.153-.469-.301-.952-.583-.12-.071-.123-.07-.243-.141-.489-.275-.994-.53-.252-.129-.252-.126-.509-.249-1.032-.472-2.112-.864-.126-.044-.126-.047-.252-.091-.504-.179-1.022-.334-.129-.041-.129-.038-.258-.079-.518-.149-1.043-.278-.132-.036-.396-.096-.53-.12-.132-.03-.134-.029-.264-.059-.536-.108-.135-.026-.132-.024-.269-.05-.674-.117-.135-.02-.272-.044-.542-.079-.147-.021-.149-.017-.296-.039-.147-.02-.149-.018-.296-.032-.149-.015-.15-.017-.296-.026-.299-.03-.597-.047-.153-.008-.149-.012-.299-.018-.302-.014-.149-.009-.149-.006-.153-.006-.149-.006-.153-.003-.149-.006-.152-.002-.15-.003-.304-.006h-.15l-.152-.003h-.454l-.153.003-.149.003h-.152l-.153.003-.152.005-.152.003-.15.006-.152.003-.153.006-.152.009-.152.006-.153.008-.152.006-.305.018-.304.02-.305.024-.305.026-.152.012-.457.044-.144.015-.14.014-.287.032-.569.068-.143.017-.141.021-.287.038-.568.085-.144.023-.14.024-.285.047-.568.102-1.137.226-.143.029-.141.032-.284.065-.566.132-1.127.293-.282.076-.281.079-.562.167-1.12.354-.134.047-.138.047-.273.094-.544.193-1.081.41-.27.106-.27.111-.536.223-1.066.472-.264.123-.263.126-.528.254-1.046.531-2.053 1.154-.276.164-.817.51-1.075.709-.132.091-.135.093-.264.185-.527.375-1.04.776-.126.1-.129.1-.255.202-.507.407-.999.844-1.927 1.778-.112.108-.325.326-.434.439-.843.896-1.626 1.875-.097.121-.1.12-.193.243-.384.492-.753.996-1.426 2.066-.091.143-.094.144-.182.29-.36.58-.694 1.18-.17.299-.167.302-.325.607-.63 1.227-.076.155-.074.156-.149.31-.293.63-.557 1.272-.067.158-.067.161-.132.322-.255.651-.484 1.309-.058.161-.056.164-.108.325-.217.654-.401 1.321-.094.334-.091.331-.179.671-.325 1.351-.076.339-.07.34-.141.683-.032.173-.032.17-.065.342-.117.692-.029.17-.027.173-.052.348-.1.695-.047.345-.044.349-.079.7-.015.164-.017.164-.032.325-.03.329-.026.328-.024.328-.023.331-.009.164-.011.164-.018.328-.006.167-.009.164-.006.164-.008.167-.006.164-.003.167-.006.164-.003.167-.006.164-.003.167-.003.164v.167l-.003.165v.665l.003.167v.164l.006.334.006.167.003.164.029.835.009.164.035.668.059.835.029.331.029.334.033.334.07.668.041.363.047.36.097.724.026.182.026.178.056.364.12.72.032.182.032.179.068.36.14.721.314 1.438.044.179.041.179.091.357.184.718.402 1.424.052.178.053.176.111.355.226.706.489 1.409.059.161.184.492.25.65.533 1.292.067.162.07.161.141.319.29.639.604 1.268.158.317.158.313.325.627.677 1.239 1.462 2.432.187.293.191.293.389.583.8 1.148 1.702 2.239.109.137.111.135.223.273.454.542.929 1.066 1.951 2.065.137.135.138.138.276.269.559.537 1.143 1.048.146.129.144.129.293.255.592.504 1.209.987.153.12.466.361.624.471 1.271.92 2.631 1.729.155.097.158.096.317.191.636.375 1.289.723.328.176.325.173.659.343 1.336.656.167.079.17.079.337.155.68.308 1.377.583.172.073.173.068.349.14.697.27 1.412.513.797.269.8.255.202.064.199.062.405.12.811.234.202.059.205.056.408.108.82.208 1.649.384.416.088.416.085.835.161.208.038.211.035.419.073.844.135.422.065.633.087.214.027.424.055.211.024.214.026.425.047.214.021.211.023.214.021.213.017" stroke-width="8.1" stroke="#0051CB" fill="none" />
</svg>